<svg id="Layer_1" data-name="Layer 1" xmlns="http://www.w3.org/2000/svg" viewBox="0 0 512 512">
  <defs>
    <style>
      .cls-1 {
        fill: #0b8fe8;
      }

      .cls-2 {
        fill: #0e8025;
      }

      .cls-3 {
        fill: #fefefe;
      }
    </style>
  </defs>
  <title>dawasco-logo</title>
  <g>
    <path class="cls-1" d="M507.79,288c-.32,1.55-.56,3.11-1,4.64a20.06,20.06,0,0,1-10.08,13,36.66,36.66,0,0,1-12.38,3.75,77.73,77.73,0,0,1-14.3.39A36.47,36.47,0,0,1,454.54,306,21.24,21.24,0,0,1,443,290.3a36.16,36.16,0,0,1-.68-8.73c.29-5.75,1.64-11.19,5.44-15.69a24.65,24.65,0,0,1,12.47-7.67,62.2,62.2,0,0,1,31.37.34c6.28,1.94,11.29,5.69,14,11.89a21.23,21.23,0,0,1,1.95,7.69c0,.2,0,.41.24.48Z"/>
    <path class="cls-1" d="M180.91,364.05c0-2.52,0-5,0-7.56,0-.67.17-.86.85-.85q7,0,13.92,0c.68,0,.87.18.86.85,0,2.52,0,5,0,7.56Z"/>
    <path class="cls-1" d="M276.19,194.09c0,13,0,26.08,0,39.12,0,1.1.31,1.27,1.31,1.27q10.5-.07,21,0c1.11,0,1.27-.32,1.26-1.31,0-6.68,0-13.36-.05-20,0-1.12.33-1.26,1.32-1.26q19.56,0,39.12,0c1.21,0,1.38.35,1.38,1.44-.05,8.52,0,17-.05,25.56,0,1,.17,1.39,1.32,1.38,13.56,0,27.12,0,40.68-.05.95,0,1.29.16,1.25,1.2-.1,2.2-.05,4.4,0,6.6,0,.65-.13.88-.83.88q-25.08,0-50.16,0c-1,0-.86-.5-.86-1.1,0-8.68,0-17.36,0-26,0-1-.21-1.24-1.22-1.24q-11.1.08-22.2,0c-.88,0-1.12.18-1.11,1.09,0,6.8,0,13.6,0,20.4,0,.89-.19,1.12-1.1,1.11q-19.26,0-38.52,0c-1,0-1.22-.23-1.22-1.23q0-39.18.05-78.36c0-1.09-.27-1.35-1.35-1.35q-12.78.07-25.56,0c-1,0-1.23.25-1.22,1.24q0,38.34.05,76.68c0,1.1-.29,1.34-1.36,1.34q-10.08-.09-20.16,0c-.92,0-1.1-.25-1.09-1.12,0-6,0-12,.05-18,0-.93-.26-1.1-1.13-1.09-3.52.05-7,.06-10.56,0-.93,0-1.09.27-1.08,1.13,0,5.12,0,10.24.05,15.36,0,.94-.28,1.08-1.13,1.08q-13.2,0-26.4,0c-.95,0-1.08-.29-1.08-1.14,0-8.08,0-16.16,0-24.24,0-1.14-.35-1.32-1.38-1.31-9.56,0-19.12,0-28.68,0-1.27,0-1.44.38-1.44,1.51.05,8.88,0,17.76.05,26.64,0,.88-.14,1.2-1.14,1.2q-13.42-.08-26.87,0c-.81,0-1.1-.14-1.07-1,.07-2.2.09-4.4,0-6.6,0-1,.35-1.06,1.16-1.05,6,0,11.92,0,17.87,0,.91,0,1.19-.18,1.19-1.15-.05-9,0-18-.05-27,0-.91.19-1.17,1.15-1.17q23.34,0,46.68,0c.92,0,1.18.21,1.17,1.16,0,8.12,0,16.24,0,24.36,0,.93.21,1.19,1.16,1.17,3.08-.07,6.16,0,9.24,0,.74,0,.93-.17.92-.92,0-5.2,0-10.4,0-15.6,0-.84.21-1,1-1q14,0,28,0c.86,0,1.05.22,1,1,0,6,0,12.08,0,18.12,0,.86.22,1.09,1.05,1a25.12,25.12,0,0,1,3.36,0c.77.05.91-.21.91-.93,0-4.36,0-8.72,0-13.08q0-32,0-64c0-1.08.29-1.28,1.31-1.27q21.42,0,42.84,0c1.09,0,1.27.31,1.26,1.31Q276.17,174.47,276.19,194.09Z"/>
    <path class="cls-1" d="M206.48,288q1.62-5.81,3.22-11.59,2.06-7.44,4.09-14.89c.4-1.46.81-2.93,1.2-4.4a1,1,0,0,1,1.08-.79q9.6,0,19.2,0c.7,0,.87.08.63.83-1.1,3.42-2.1,6.86-3.17,10.29-2.35,7.51-4.74,15-7.08,22.53-1.91,6.11-3.83,12.2-5.63,18.34-.38,1.3-.92,1.58-2.18,1.57-6.84-.06-13.68,0-20.52,0-.67,0-1-.13-1.25-.84-1.38-4.43-2.8-8.85-4.21-13.27-1-3.27-2.09-6.53-3.16-9.86l-5.87,18.29c-.56,1.75-1.16,3.48-1.66,5.24-.21.73-.7.41-1,.41-5.56,0-11.12,0-16.68,0-1.52,0-3,0-4.56,0-.76,0-1.07-.22-1.3-1-1.62-5.37-3.31-10.73-5-16.08q-3.3-10.56-6.6-21.1c-1.5-4.84-2.95-9.7-4.51-14.52-.28-.84,0-.86.62-.86q9.66,0,19.31,0c.7,0,.87.34,1,.87q1.55,5.64,3.11,11.28l4,14.65a41.12,41.12,0,0,0,1.55,4.88q1.75-5.61,3.5-11.2,3-9.78,6-19.57c.17-.57.46-.66.94-.66,4.72,0,9.44,0,14.16,0,.69,0,.85.35,1,.87q2.63,8.5,5.27,17,2.1,6.79,4.22,13.58Z"/>
    <path class="cls-2" d="M359.8,154.7c1.49.31,2.85-.17,4.24-.19a93.43,93.43,0,0,1,19.1,1.43A82.73,82.73,0,0,1,401,161.47c.72.32.7.54.28,1.11-1.58,2.17-3.14,4.35-4.64,6.58-.37.54-.59.49-1.11.27a70.32,70.32,0,0,0-14.92-4.35,66.14,66.14,0,0,0-8.53-1c-1.18-.06-2.36-.15-3.85-.21,2.33,1.31,4.45,2.4,6.46,3.65a82.21,82.21,0,0,1,9.36,6.6,79.67,79.67,0,0,1,7.2,6.54A87.17,87.17,0,0,1,402.92,196a82.16,82.16,0,0,1,8.27,19.05,77.7,77.7,0,0,1,2.32,11.07,85.19,85.19,0,0,1,.9,12.86c0,2.64-.3,5.28-.46,7.93,0,.72-.39,1-1.14,1-2.44,0-4.88-.09-7.32,0-1.13.05-1.29-.43-1.13-1.3.73-4.15.48-8.33.45-12.49a57.38,57.38,0,0,0-1.68-12.31,70.38,70.38,0,0,0-6-16.58,72.13,72.13,0,0,0-8.37-12.9,70.34,70.34,0,0,0-5.94-6.61,85.61,85.61,0,0,0-11-8.81c-.18-.12-.41-.4-.8-.23a82.13,82.13,0,0,1,10.28,22.66l-8,.54c-.23,0-.52-.07-.7,0-.88.5-1.06,0-1.28-.72a74,74,0,0,0-12.77-23.4c-1.88-2.3-3.94-4.4-5.93-6.67a68.78,68.78,0,0,0-3.22,12.58,83.56,83.56,0,0,0-.84,8.82c-.12,2.38.1,4.73.1,7.09a46.21,46.21,0,0,0,.45,4.69c.05.56,0,.84-.75,1-2.58.5-5.14,1.17-7.7,1.79-.91.22-.86-.47-.89-1-.14-2.17-.4-4.32-.57-6.48a55.11,55.11,0,0,1-.12-7.15c.15-3,.43-6,.84-9a99.78,99.78,0,0,1,2.9-13.05,58.62,58.62,0,0,0-10,4.49,67.53,67.53,0,0,0-9.63,6.34,69,69,0,0,0-7.18,6.37c-.57.6-.91.63-1.48,0-1.71-1.88-3.67-3.53-5.28-5.52-.43-.51-.47-.74,0-1.22a88,88,0,0,1,10.9-9.22,80.37,80.37,0,0,1,11.92-7.06,49.5,49.5,0,0,1,6.63-2.8,8.61,8.61,0,0,0,.95-.43,51.37,51.37,0,0,0-7.87-4.23,66.21,66.21,0,0,0-9.59-3.5A59,59,0,0,0,312,149.49c-.81-.08-1.31-.31-1.26-1.35q.15-3.54,0-7.08c0-1.07.34-1.32,1.28-1.17,2.23.37,4.47.68,6.69,1.11a76.24,76.24,0,0,1,14,4.18A74.44,74.44,0,0,1,344.24,151l4.81,3a94.78,94.78,0,0,1,7.28-11.08,83.46,83.46,0,0,1,8.86-9.74,88.52,88.52,0,0,1,13.4-10.25.92.92,0,0,1,1.42.23c1.64,2.15,3.3,4.27,4.95,6.41.23.3.36.52-.13.82a78.32,78.32,0,0,0-12.36,9.09,71.44,71.44,0,0,0-12.53,14.94A1.59,1.59,0,0,0,359.8,154.7Z"/>
    <path class="cls-1" d="M46,305.16c-12.11,7.95-27,5.46-35.6-4.2a27.32,27.32,0,0,1-2.13-33.2c6.55-9.72,22.16-16.91,37.73-7v-1.2c0-6.08,0-12.16,0-18.24,0-1,.27-1.17,1.19-1.17q9.78.06,19.56,0c.86,0,1.13.18,1.13,1.1q0,33.72,0,67.43c0,.92-.25,1.12-1.13,1.11q-9.84-.06-19.68,0c-.81,0-1.13-.17-1.07-1C46.09,307.64,46,306.49,46,305.16Z"/>
    <path class="cls-1" d="M116.59,304.14A15.77,15.77,0,0,1,109,308.9a18.71,18.71,0,0,1-5.56.91c-5.07,0-10.15,0-15.23,0-6.07-.05-10.18-3.68-12.42-8.6a20.66,20.66,0,0,1-1.37-11.28c.71-5.72,4.54-10.14,10.7-11.79a24.44,24.44,0,0,1,6.44-.73q10.25,0,20.51,0a7.75,7.75,0,0,0,5-1.76c1.92-1.55,1.71-4.46.72-6.27-1.39-2.51-3.75-3.31-6.38-3.46a57.94,57.94,0,0,0-6.72,0c-3.91.26-7.9,2.19-9,6.88-.14.61-.45.53-.83.53-5.67,0-11.35,0-17,0-.95,0-1-.45-.87-1.08A23.85,23.85,0,0,1,80.1,264a16,16,0,0,1,11.19-7.24,31.43,31.43,0,0,1,5.3-.45c7.44,0,14.88-.08,22.32,0a23.13,23.13,0,0,1,11,2.56,15.48,15.48,0,0,1,8,11.16,34.8,34.8,0,0,1,.49,6.61q0,16,0,31.92c0,1-.2,1.26-1.22,1.26q-9.72-.09-19.44,0c-1,0-1.28-.29-1.22-1.27C116.66,307.2,116.59,305.81,116.59,304.14Z"/>
    <path class="cls-1" d="M279.31,304.15a16.62,16.62,0,0,1-8.52,5,16.82,16.82,0,0,1-4.16.68c-5.28,0-10.56,0-15.84,0-5-.05-8.69-2.47-11.28-6.62a15.91,15.91,0,0,1-2.45-9.3c.11-2.32-.24-4.65.71-6.91a14.15,14.15,0,0,1,9.33-8.63,25.24,25.24,0,0,1,7.47-.94c6.64,0,13.28,0,19.92,0a8.57,8.57,0,0,0,4.29-1.07c3.9-2.23,2.61-7-.11-9a8.21,8.21,0,0,0-4.75-1.45q-3-.11-6,0c-4.24.12-8.43,2-9.53,6.8-.11.46-.43.65-1,.65-5.91,0-11.83,0-17.75,0a19.46,19.46,0,0,1,5.7-12.51,16.17,16.17,0,0,1,10.06-4.28c8.82-.56,17.65-.24,26.47-.19,4.87,0,9.6,1.12,13.48,4.39a15.81,15.81,0,0,1,5,8.48,17,17,0,0,1,.5,4.33q0,17.52,0,35c0,1-.23,1.25-1.23,1.25q-9.6-.07-19.2,0c-1.06,0-1.27-.33-1.21-1.28C279.37,307.21,279.31,305.84,279.31,304.15Z"/>
    <path class="cls-1" d="M427,278.61c-3,0-5.92,0-8.88,0a1.22,1.22,0,0,1-1.31-.85,12.48,12.48,0,0,0-13.14-7c-5.54.73-10,4.37-10.95,10.3-.77,4.53.88,8.42,4.63,11.33a12.79,12.79,0,0,0,16.08-.11,11.77,11.77,0,0,0,3.52-4.49.85.85,0,0,1,.91-.54q9.18,0,18.36,0c.74,0,.87.29.81.91a29.72,29.72,0,0,1-1.44,6.39,18.79,18.79,0,0,1-4.76,7.61,23.19,23.19,0,0,1-9.46,5.5,48.28,48.28,0,0,1-10.12,2,75.42,75.42,0,0,1-11.83.14c-6.45-.39-12.76-1.6-18.22-5.44a20.94,20.94,0,0,1-8.28-11.66,36.41,36.41,0,0,1-1.12-12.58,22.86,22.86,0,0,1,17.08-21.61,43.7,43.7,0,0,1,8.5-1.7,58.25,58.25,0,0,1,9.14-.44c6.6.35,13.14,1,19.12,4.26a20.72,20.72,0,0,1,10.92,14.95c.1.54.19,1.08.26,1.62.22,1.48.26,1.47-1.18,1.47Z"/>
    <path class="cls-1" d="M336.45,309.81c-3.72,0-7.44.07-11.16,0a20.07,20.07,0,0,1-12.58-4.21,12.12,12.12,0,0,1-4.58-8.49c-.05-.6-.66-1.33-.11-1.78s1.31-.13,2-.13c5.8,0,11.6,0,17.4,0a1.31,1.31,0,0,1,1.43.85c.83,1.66,2.41,2.24,4.12,2.56A21.38,21.38,0,0,0,343,298.5a4.82,4.82,0,0,0,2.43-7.29c-1.12-1.46-2.87-1.87-4.61-2-6.13-.56-12.28-.18-18.42-.23a15.24,15.24,0,0,1-10.57-3.88,12.5,12.5,0,0,1-3.75-7,30.44,30.44,0,0,1-.2-7.86,12.63,12.63,0,0,1,4.92-8.82c3.44-2.89,7.57-4.16,11.91-4.76a27.65,27.65,0,0,1,3.66-.3h17.88a24.18,24.18,0,0,1,10.43,2,17.9,17.9,0,0,1,8.1,7.49,27,27,0,0,1,1.73,3.7c.3.78.23,1.22-.83,1.22-7.08,0-14.16,0-21.24,0-.4,0-.79,0-1.08-.34-1.43-1.82-3.55-1.9-5.56-2a22.29,22.29,0,0,0-5.59.19,6.34,6.34,0,0,0-4.14,2.5c-1.15,1.59-.57,3.38,1.4,4.47a10.77,10.77,0,0,0,4.37,1.2c6,.53,12,0,17.95.29A15.13,15.13,0,0,1,363.55,283a14.62,14.62,0,0,1,2.25,14.7,17.71,17.71,0,0,1-11.63,10.86,23.35,23.35,0,0,1-7.65,1.23C343.16,309.76,339.8,309.81,336.45,309.81Z"/>
    <path class="cls-1" d="M188.71,316.29c9.92,0,19.83,0,29.75,0,.89,0,1.15.19,1.11,1.1-.07,2.16-.09,4.32,0,6.48,0,1.06-.42,1.09-1.23,1.09H164.24c-1.84,0-3.68,0-5.52,0-.67,0-.88-.17-.87-.86.05-2.24.07-4.48,0-6.71,0-.9.2-1.11,1.1-1.11C168.87,316.31,178.79,316.29,188.71,316.29Z"/>
    <path class="cls-1" d="M188.62,338.13c-7.32,0-14.64,0-22,0-.84,0-1.17-.12-1.14-1.07.09-2.32,0-4.64,0-7,0-.64.11-.89.83-.88q22.32,0,44.63,0c.8,0,.9.27.88,1,0,2.31-.06,4.64,0,6.95,0,.9-.29,1-1.08,1C203.41,338.12,196,338.13,188.62,338.13Z"/>
    <path class="cls-1" d="M188.71,342.45c4.84,0,9.68,0,14.52,0,.78,0,1,.2,1,1-.06,2.28-.05,4.56,0,6.84,0,.68-.19.86-.86.86q-14.64,0-29.28,0c-.67,0-.87-.18-.85-.86,0-2.28.05-4.56,0-6.84,0-.79.21-1,1-1C179,342.47,183.87,342.45,188.71,342.45Z"/>
    <path class="cls-1" d="M159.91,216.45c3.16,0,6.32,0,9.48,0,.78,0,1,.19,1,1-.06,2-.05,4.08,0,6.12,0,.68-.19.86-.86.86q-9.6,0-19.2,0c-.67,0-.87-.18-.86-.86q.08-3.12,0-6.24c0-.68.18-.86.85-.85C153.51,216.47,156.71,216.45,159.91,216.45Z"/>
    <path class="cls-1" d="M253.51,167c3,0,5.92,0,8.88,0,.67,0,.87.17.86.85q-.08,3.12,0,6.24c0,.68-.19.86-.86.86q-8.88,0-17.76,0c-.67,0-.87-.18-.86-.86q.07-3.12,0-6.24c0-.68.17-.86.85-.85C247.59,167,250.55,167,253.51,167Z"/>
    <path class="cls-1" d="M253.51,180c3,0,5.92,0,8.88,0,.67,0,.87.17.86.85q-.08,3.12,0,6.24c0,.68-.19.86-.86.86q-8.88,0-17.76,0c-.67,0-.87-.18-.86-.86q.07-3.12,0-6.24c0-.68.18-.86.85-.85C247.59,180,250.55,180,253.51,180Z"/>
    <path class="cls-1" d="M253.57,192.45c2.92,0,5.84,0,8.76,0,.73,0,.94.17.92.92-.06,2.08,0,4.16,0,6.24,0,.63-.16.8-.79.79q-8.94,0-17.88,0c-.62,0-.81-.16-.79-.79,0-2.12,0-4.24,0-6.36,0-.63.16-.8.79-.79C247.57,192.47,250.57,192.45,253.57,192.45Z"/>
    <path class="cls-3" d="M487.38,282.68c.27,6.08-4.67,11.31-10.39,12.27a12.57,12.57,0,0,1-11.35-3.5,11.43,11.43,0,0,1-1.87-14.74,12.27,12.27,0,0,1,12.59-5.95,12.48,12.48,0,0,1,11,10.27A7.08,7.08,0,0,1,487.38,282.68Z"/>
    <path class="cls-3" d="M47.71,283.66a12.13,12.13,0,1,1-12.08-12.23C42.07,271.41,47.9,277.06,47.71,283.66Z"/>
    <path class="cls-3" d="M117.07,284.51c0,3,.2,6-.06,8.95-.23,2.65-2.3,4-4.62,4.83A11.48,11.48,0,0,1,108,299c-2.35,0-4.72.05-7.07,0a5.58,5.58,0,0,1-5.49-5,12.85,12.85,0,0,1,0-4.46,5.09,5.09,0,0,1,4.87-4c1.88-.06,3.77,0,5.65,0s3.72-.24,5.59-.29A47.37,47.37,0,0,0,117.07,284.51Z"/>
    <path class="cls-3" d="M279.79,284.47c0,2.9,0,5.74,0,8.58-.06,2.38-2.53,4.79-5.42,5.48-3.7.9-7.45.36-11.17.43a4.76,4.76,0,0,1-2.31-.7,4.94,4.94,0,0,1-2.74-4c-.22-2-.63-4,.33-5.93a5.06,5.06,0,0,1,4.38-2.76c1.63-.13,3.28,0,4.93,0A67.31,67.31,0,0,0,279.79,284.47Z"/>
  </g>
</svg>
