<svg xmlns="http://www.w3.org/2000/svg" xmlns:xlink="http://www.w3.org/1999/xlink" viewBox="0 0 120.75 43.85">
  <defs>
    <style>
      .cls-1 {
        fill: #4d4d4f;
      }

      .cls-2 {
        fill: url(#linear-gradient);
      }
    </style>
    <linearGradient id="linear-gradient" x1="16.69" y1="45.25" x2="16.69" y2="1.41" gradientTransform="matrix(1, 0, 0, -1, 0, 45.25)" gradientUnits="userSpaceOnUse">
      <stop offset="0" stop-color="#50b848"/>
      <stop offset="1" stop-color="#0086cb"/>
    </linearGradient>
  </defs>
  <title>korea-gg</title>
  <g id="Layer_2" data-name="Layer 2">
    <g id="Layer_1-2" data-name="Layer 1">
      <g>
        <g>
          <path class="cls-1" d="M41.34,6.16H42v5.52l5.35-5.52h.85l-3.67,3.7,3.83,4.69H47.5l-3.45-4.24L42,12.42v2.13h-.62Z"/>
          <path class="cls-1" d="M48.77,11.52h0a3.14,3.14,0,1,1,6.28,0h0a3.14,3.14,0,0,1-6.28,0Zm5.65,0h0a2.56,2.56,0,0,0-2.49-2.65h0a2.51,2.51,0,0,0-2.5,2.53v.09h0a2.57,2.57,0,0,0,2.49,2.64h0a2.53,2.53,0,0,0,2.5-2.56Z"/>
          <path class="cls-1" d="M56.65,8.44h.58v1.74a2.87,2.87,0,0,1,2.71-1.84V9h-.06C58.47,9,57.23,10,57.23,12v2.5h-.58Z"/>
          <path class="cls-1" d="M60.47,11.51h0a3,3,0,0,1,2.8-3.19h.1c1.72,0,2.81,1.39,2.81,3.21a1,1,0,0,1,0,.24H61.11a2.44,2.44,0,0,0,2.4,2.41,2.78,2.78,0,0,0,2.1-1l.41.36a3.28,3.28,0,0,1-2.53,1.15,3,3,0,0,1-3-3Zm5.07-.3a2.25,2.25,0,0,0-2.13-2.38h-.06a2.38,2.38,0,0,0-2.26,2.38Z"/>
          <path class="cls-1" d="M67.15,12.78h0c0-1.28,1.09-2,2.68-2a6.75,6.75,0,0,1,2,.27v-.27A1.77,1.77,0,0,0,70.2,8.89a1.53,1.53,0,0,0-.37,0,4,4,0,0,0-1.92.49l-.22-.51a4.7,4.7,0,0,1,2.17-.53A2.59,2.59,0,0,1,71.79,9a2.3,2.3,0,0,1,.63,1.73v3.81h-.58v-1a2.79,2.79,0,0,1-2.34,1.17,2.13,2.13,0,0,1-2.34-1.9S67.15,12.8,67.15,12.78Zm4.71-.52v-.69a7.6,7.6,0,0,0-2.07-.28c-1.3,0-2,.58-2,1.43h0c0,.89.83,1.41,1.77,1.41A2.1,2.1,0,0,0,71.86,12.26Z"/>
          <path class="cls-1" d="M40.8,24.18h0A4.29,4.29,0,0,1,45,19.83h.1A4.51,4.51,0,0,1,48.36,21l-.94,1.12a3.26,3.26,0,0,0-2.35-.9,2.83,2.83,0,0,0-2.72,2.95v.05h0a2.8,2.8,0,0,0,2.59,3h.26a3.47,3.47,0,0,0,2-.63V25H45.05V23.66h3.6v3.53a5.35,5.35,0,0,1-3.5,1.31,4.18,4.18,0,0,1-4.35-4Z"/>
          <path class="cls-1" d="M50.17,22h1.48v1.43a2.24,2.24,0,0,1,2.24-1.55v1.54h-.08c-1.27,0-2.16.82-2.16,2.5v2.41H50.2Z"/>
          <path class="cls-1" d="M54.32,25.21h0a3.15,3.15,0,0,1,3-3.3h.1c2,0,3,1.58,3,3.41v.4H55.76a1.79,1.79,0,0,0,1.89,1.59,2.31,2.31,0,0,0,1.71-.76l.85.76a3.3,3.3,0,0,1-5.84-2.1ZM59,24.74a1.63,1.63,0,0,0-1.61-1.66,1.71,1.71,0,0,0-1.64,1.66Z"/>
          <path class="cls-1" d="M61.33,25.21h0a3.14,3.14,0,0,1,3-3.3h.11c2,0,3,1.58,3,3.41a2.67,2.67,0,0,1,0,.4H62.77a1.78,1.78,0,0,0,1.88,1.59,2.33,2.33,0,0,0,1.72-.76l.85.76a3.27,3.27,0,0,1-2.59,1.19,3.18,3.18,0,0,1-3.3-3ZM66,24.74a1.65,1.65,0,0,0-1.61-1.66,1.71,1.71,0,0,0-1.64,1.66Z"/>
          <path class="cls-1" d="M68.65,22H70.1v1a2.26,2.26,0,0,1,2-1.12,2.14,2.14,0,0,1,2.25,2.43v4H72.9V24.76c0-1-.49-1.55-1.36-1.55a1.4,1.4,0,0,0-1.43,1.36,1.48,1.48,0,0,0,0,.21v3.57H68.65Z"/>
          <path class="cls-1" d="M79,24.18h0a4.29,4.29,0,0,1,4.23-4.35h.1A4.54,4.54,0,0,1,86.65,21l-1,1.1a3.26,3.26,0,0,0-2.35-.9,2.83,2.83,0,0,0-2.72,2.95v.05h0a2.8,2.8,0,0,0,2.59,3h.26a3.47,3.47,0,0,0,2-.63V25H83.28V23.66h3.58v3.53a5.4,5.4,0,0,1-3.5,1.31,4.18,4.18,0,0,1-4.32-4Z"/>
          <path class="cls-1" d="M88.41,22h1.45v1.43a2.25,2.25,0,0,1,2.25-1.55v1.54H92c-1.27,0-2.16.82-2.16,2.5v2.41H88.41Z"/>
          <path class="cls-1" d="M92.57,25.22h0a3.38,3.38,0,0,1,6.75,0h0A3.31,3.31,0,0,1,96,28.52h-.08a3.29,3.29,0,0,1-3.35-3.19Zm5.3,0h0a2,2,0,0,0-2-2A1.88,1.88,0,0,0,94,25.11v.11h0a2,2,0,0,0,1.93,2,1.93,1.93,0,0,0,2-1.87Z"/>
          <path class="cls-1" d="M99.73,22h1.49l1.27,4.34,1.4-4.36h1.24l1.41,4.36,1.3-4.34h1.45l-2.08,6.38h-1.29l-1.42-4.33-1.42,4.33h-1.3Z"/>
          <path class="cls-1" d="M110.65,26.6V23.27h-.8V22h.8V20.28h1.45V22h1.7v1.25h-1.7v3.11a.69.69,0,0,0,.58.78.66.66,0,0,0,.2,0,2,2,0,0,0,.9-.22v1.19a2.6,2.6,0,0,1-1.31.32,1.62,1.62,0,0,1-1.82-1.39A1.48,1.48,0,0,1,110.65,26.6Z"/>
          <path class="cls-1" d="M115,19.6h1.45V23a2.26,2.26,0,0,1,2-1.12,2.14,2.14,0,0,1,2.25,2.43v4h-1.45V24.76c0-1-.49-1.55-1.35-1.55a1.41,1.41,0,0,0-1.44,1.38,1.28,1.28,0,0,0,0,.19v3.57h-1.45Z"/>
          <path class="cls-1" d="M43.65,34.33H40.72v-.57H47.2v.57H44.27v7.82h-.62Z"/>
          <path class="cls-1" d="M47.54,36h.59v1.74A2.89,2.89,0,0,1,50.84,36v.65h-.06c-1.42,0-2.65,1.07-2.65,3.06v2.5h-.59Z"/>
          <path class="cls-1" d="M52,39.78V36h.59v3.63a1.87,1.87,0,0,0,1.64,2.07,1.51,1.51,0,0,0,.3,0,2.1,2.1,0,0,0,2.14-2V36h.59v6.11h-.59V41a2.4,2.4,0,0,1-2.2,1.29A2.34,2.34,0,0,1,52,40.07,1.4,1.4,0,0,1,52,39.78Z"/>
          <path class="cls-1" d="M58.65,41.39l.35-.47a3.63,3.63,0,0,0,2.19.8c.83,0,1.48-.45,1.48-1.16h0c0-.72-.77-1-1.62-1.23S59,38.74,59,37.65h0a1.79,1.79,0,0,1,1.9-1.7H61a4,4,0,0,1,2.18.67l-.32.49a3.42,3.42,0,0,0-1.88-.61c-.84,0-1.39.46-1.39,1.07h0c0,.68.83.94,1.7,1.19s2,.63,2,1.71h0a1.89,1.89,0,0,1-2,1.79h-.13A4.29,4.29,0,0,1,58.65,41.39Z"/>
          <path class="cls-1" d="M65.15,40.58v-4h-.89V36h.89V34h.58v2h2.15v.54H65.73v3.94a1.08,1.08,0,0,0,1,1.19H67a2.33,2.33,0,0,0,.9-.21v.55a2.42,2.42,0,0,1-1,.21,1.57,1.57,0,0,1-1.71-1.4A1.31,1.31,0,0,1,65.15,40.58Z"/>
          <path class="cls-1" d="M72.87,33.76h5.92v.57H73.5v3.45h4.75v.57H73.5v3.8h-.63Z"/>
          <path class="cls-1" d="M79.77,39.78V36h.59v3.63A1.87,1.87,0,0,0,82,41.74a1.51,1.51,0,0,0,.3,0,2.1,2.1,0,0,0,2.13-2.07V36H85v6.11h-.58V41a2.42,2.42,0,0,1-2.21,1.29,2.34,2.34,0,0,1-2.45-2.21A2.43,2.43,0,0,1,79.77,39.78Z"/>
          <path class="cls-1" d="M87,36h.64v1.14a2.38,2.38,0,0,1,2.2-1.29,2.32,2.32,0,0,1,2.46,2.19c0,.11,0,.22,0,.33v3.74h-.65V38.52A1.87,1.87,0,0,0,90,36.44a1.08,1.08,0,0,0-.31,0,2.09,2.09,0,0,0-2.06,2.13v3.59h-.59Z"/>
          <path class="cls-1" d="M93.49,39.12h0a3.06,3.06,0,0,1,2.91-3.21h.09A2.9,2.9,0,0,1,99,37.38v-4h.59v8.75H99V40.79a2.95,2.95,0,0,1-5.52-1.49Zm5.53,0h0a2.54,2.54,0,0,0-2.48-2.62h0a2.38,2.38,0,0,0-2.41,2.37,1.93,1.93,0,0,0,0,.24h0a2.46,2.46,0,0,0,2.28,2.62h.12A2.57,2.57,0,0,0,99,39.12h0Z"/>
        </g>
        <path id="_Compound_Path_" data-name=" Compound Path " class="cls-2" d="M18.57,33.28V23.56l7.87-7.87L28,17.2,27.55,13l-4.22-.41,1.51,1.52-6.27,6.27V10.11H21.5L16.65,6.26l-4.81,3.85h2.93V24.62L8.52,18.37,10,16.85l-4.22.41L5.4,21.48,7,20l7.85,7.85v5.46a16.7,16.7,0,1,1,3.76,0Zm-2.8.08h.88A5.17,5.17,0,0,1,15.77,33.36Zm1.89,0h-2l-.75-.06h-.05V43.85h3.76V33.28h0c-.35,0-.65.06-1,.08Zm-2,0-.75-.06h0l.86.08Zm2.08,0h0a3.43,3.43,0,0,0,.9-.08h0c-.62.07-1.24.1-1.87.11h0l.88,0Z"/>
      </g>
    </g>
  </g>
</svg>
