<?xml version="1.0" encoding="utf-8"?>
<!-- Generator: Adobe Illustrator 16.0.0, SVG Export Plug-In . SVG Version: 6.00 Build 0)  -->
<!DOCTYPE svg PUBLIC "-//W3C//DTD SVG 1.1//EN" "http://www.w3.org/Graphics/SVG/1.1/DTD/svg11.dtd">
<svg version="1.1" id="Layer_1" xmlns="http://www.w3.org/2000/svg" xmlns:xlink="http://www.w3.org/1999/xlink" x="0px" y="0px"
	 width="850.39px" height="850.39px" viewBox="0 0 850.39 850.39" enable-background="new 0 0 850.39 850.39" xml:space="preserve">
<g>
	<circle fill="#FFFFFF" cx="411" cy="373" r="334.999"/>
	<linearGradient id="SVGID_1_" gradientUnits="userSpaceOnUse" x1="69.001" y1="373.0005" x2="752.999" y2="373.0005">
		<stop  offset="0" style="stop-color:#0E301A"/>
		<stop  offset="1" style="stop-color:#122816"/>
	</linearGradient>
	<path fill="url(#SVGID_1_)" d="M411,715c-91.351,0-177.234-35.574-241.83-100.17C104.575,550.235,69.001,464.352,69.001,373
		c0-91.351,35.574-177.234,100.169-241.83S319.649,31.001,411,31.001c91.352,0,177.235,35.574,241.83,100.169
		C717.425,195.765,752.999,281.649,752.999,373c0,91.352-35.574,177.235-100.169,241.83C588.235,679.426,502.352,715,411,715z
		 M411,45.001C230.141,45.001,83.001,192.141,83.001,373S230.141,701,411,701s327.999-147.141,327.999-328
		S591.859,45.001,411,45.001z"/>
</g>
<g>
	<path fill-rule="evenodd" clip-rule="evenodd" fill="#FFFFFF" d="M725.039,629.667c0,0-40.039,42.983-81.372,64.158
		c0,0-26.667,18.662-28,31.585c0,0-5.379,39.923,14.311,51.59c0,0,6.07,1.667,10.38,0c0,0,75.174-37.845,100.644-69l32.333-31.534
		c0,0-6-4.466-33-1.466l-10.333-2.333C730.001,672.667,729.411,636.334,725.039,629.667z"/>
	<path fill-rule="evenodd" clip-rule="evenodd" fill="#12331C" d="M610.4,756.342c18.746,35.686,24.988,26.503,24.988,26.503
		C708,751.47,785.738,669.958,785.738,669.958c-59.18,2.958-52.68,0.102-52.68,0.102c0.643-5.94-2.229-51.378-2.229-51.378
		c-35.088,40.682-99.818,79.646-99.818,79.646C606.596,712.722,610.4,756.342,610.4,756.342z M621.667,749.667
		c0,0-33.672-19.045,7.311-37.667c0,0,67.275-43.422,94.651-75.163c0,0,2.242,35.452,1.74,40.087c0,0-5.072,2.229,41.102-0.079
		c0,0-56.597,64.987-129.137,97.488C637.334,774.333,617.667,772.334,621.667,749.667z"/>
</g>
<g>
	<path fill-rule="evenodd" clip-rule="evenodd" fill="#FFFFFF" d="M217.029,788.001c-72.54-32.501-131.083-97.156-131.083-97.156
		c46.174,2.308,41.102,0.079,41.102,0.079c-0.501-4.635,1.74-40.087,1.74-40.087c27.376,31.741,77.881,62.143,77.881,62.143
		c37.177,23.836,27.928,53.973,27.928,53.973C226.512,793.787,217.029,788.001,217.029,788.001z"/>
	<path fill-rule="evenodd" clip-rule="evenodd" fill="#12331C" d="M221.406,712.328c0,0-64.73-38.965-99.818-79.646
		c0,0-2.872,45.438-2.23,51.378c0,0,6.5,2.856-52.679-0.102c0,0,27.321,48.042,150.35,112.887c0,0,6.242,9.183,24.988-26.503
		C242.017,770.342,242.017,725.41,221.406,712.328z M217.029,788.001c-72.54-32.501-131.083-97.156-131.083-97.156
		c46.174,2.308,41.102,0.079,41.102,0.079c-0.501-4.635,1.74-40.087,1.74-40.087c27.376,31.741,77.881,62.143,77.881,62.143
		c37.177,23.836,27.928,53.973,27.928,53.973C226.512,793.787,217.029,788.001,217.029,788.001z"/>
</g>
<path fill="#63CCEE" d="M167.262,464.303C203.868,562.252,298.282,632,409,632c110.718,0,205.132-69.748,241.739-167.697H167.262z"
	/>
<path fill-rule="evenodd" clip-rule="evenodd" fill="#FFFFFF" d="M591.875,473.563c0,0,0.803,1.578-1.099,4.195
	c0,0-1.274,1.605,2.662,0.955c0,0,20.597-0.176,26.548,1.399c0,0,6.584-1.634,7.861-1.498c0,0,1.344-0.063,1.404-1.776
	c0,0,0.252-4.213,0-4.338s0.252,0.125,0.252,0.125S594.25,469.813,591.875,473.563z"/>
<g>
	<path fill-rule="evenodd" clip-rule="evenodd" fill="#EAF3EE" d="M220.489,483.367c-8.922,0.002-17.88-0.461-26.75,0.207
		c-4.207,0.316-7.23-4.34-11.498-1.767c-2.366-0.142-1.428-1.9-1.594-3.118c0.532,0,1.063,0,1.594,0c16.33,0,32.659,0,48.976,0
		C229.704,484.585,224.77,483.275,220.489,483.367z"/>
	<path fill-rule="evenodd" clip-rule="evenodd" fill="#106333" d="M180.848,479.518c-4.872-2.145-3.728-7.239-5.496-10.915
		c-4.89-10.164-7.579-21.014-10.979-31.66c-0.752-2.357-1.426-2.653,1.203-4.344c11.118-7.154,22.787-9.911,35.469-5.692
		c6.035,2.007,11.506,1.96,16.913-1.342c13.483-8.234,25.856-3.032,38.07,3.26c0.951,0.49,1.934,2.15,1.862,3.196
		c-0.524,7.754,7.631,6.137-3.236,23.031c-1.984,3.084-5.935,4.266-8.862,6.341c-2.816,1.996-6.06,3.991-7.438,6.673
		c-4.291,8.335-11.169,8.665-19.133,8.358c-11.751-0.451-23.547,0.219-35.295-0.264c-5.284-0.217-1.055,2.256-1.472,3.357
		C181.918,479.518,181.384,479.518,180.848,479.518z"/>
	<path fill-rule="evenodd" clip-rule="evenodd" fill="#12331C" d="M577.498,704.682c-1.661-2.003-2.098-4.424-2.678-7.237
		c7.276-4.159,17.554-10.317,24.831-14.476c3.64,2.704,5.166,4.988-0.984,6.244c3.213-0.677-3.707,3.624-4.479,4.641
		c-0.021,0.025-1.73,1.366-1.537,1.456c0.227,0.105,2.507-0.905,2.764-0.865C592.062,697.023,581.758,703.69,577.498,704.682z"/>
	<path fill-rule="evenodd" clip-rule="evenodd" fill="#FDFDFC" d="M584.498,702.682c4.225-1.054,5.574-4.639,8.916-7.237
		c3.917-1.246,7.383-3.494,11.25-4.976c6.902-2.646,9.623,0.738,12.014,5.761c6.969,14.64,18.158,26.635,25.535,41
		c0.946,1.842,4.038,1.185,4.104,4.626c-9.276-4.125-16.706,0.869-23.709,5.11c-21.414,12.966-44.402,22.265-67.654,31.205
		c-24.421,9.39-49.969,14.495-75.352,19.88c-9.31,1.976-19.34,2.323-29.046,3.385c-23.122,2.529-46.387,2.332-69.522,1.316
		c-18.138-0.796-36.167-3.665-54.156-7.142c-14.929-2.885-29.437-6.885-44.058-10.715c-23.016-6.03-44.585-15.6-65.586-26.589
		c-0.848-0.444-1.763-0.76-2.642-1.146c-10.151-4.443-10.082-4.396-3.832-13.574c7.557-11.097,16.815-20.892,24.159-32.186
		c4.337-6.67,9.978-7.247,19.452-1.443c10.093,6.182,21.269,9.149,32.162,13.083c15.541,5.611,31.487,9.714,47.578,13.369
		c12.092,2.745,24.5,3.621,36.582,6.063c12.064,2.438,24.342,1.905,36.225,2.106c11.623,0.197,23.89,1.005,35.57-1.916
		c5.139-1.285,10.604-1.404,15.562-1.617c23.448-1.007,45.434-8.33,67.482-14.741c18.189-5.29,36.396-11.347,53.044-21.061
		C580.39,704.187,582.139,702.559,584.498,702.682z"/>
	<path fill-rule="evenodd" clip-rule="evenodd" fill="#112213" d="M670,380.75c-0.509,16.247-3.421,25.469-5.25,41.5
		c-2.201,19.297-8.46,38.937-16.5,56c-9.257,19.649-19.587,34.46-33,51.898c-12.352,16.06-22.564,34.085-37.529,47.361
		c-21.726,19.274-48.202,29.751-75.471,39.49c-19.638,7.016-38.157,17.481-59.368,19.632c-11.277,1.144-22.669-1.191-33.632-1.382
		c-21.995-0.381-41.819-2.912-63.5-9.25c-11.338-3.314-23.399-4.931-34.25-9.25c-11.315-4.504-20.33-9.651-30.75-16.5
		c-11.07-7.275-21.583-13.209-32.29-21.002c-1.591-1.158-3.458-2.292-3.976-4.498c0.208-1.203,0.805-1.675,2.114-1.479
		c1.955,0.292-2.238,8.129,1.166,3.006c1.1-1.656,1.348,1.382,1.089-1.446c-0.021-0.223,0.836-0.328,1.397-0.206
		c14.869,10.175,28.569,20.75,44.75,28.875c22.455,11.276,48.082,17.152,72.75,21.75c16.715,3.116,33.738,3.695,50.5,3.5
		c35.938-0.42,71.943-10.583,104-26.868c29.756-15.115,53.611-38.358,75.337-63.147c8.753-9.988,21.188-16.137,25.913-29.234
		c4.181-3.16,3.06-11.705,5.813-15.825c0.664-3.638,10.667-7.682,12.188-10.925c3.375-7.2-4.926-6.988-13.006-7.18
		c-6.452,0.005-13.551,1.701-19.17-0.446c-6.33-2.421-11.332,2.704-16.909,0.446c-7.913,0.054-7.913,0.054-5.149,6.487
		c2.568,3.093-0.138,7.857,2.16,10.168c3.36,3.379-4.52,8.352,1.535,9.589c3.636,0.742,7.289,2.592,11.239,1.922
		c0.534-0.09,1.013,0.238,1.298,0.616c0.152,0.201,0.35,0.495,0.303,0.693c-0.084,0.354-0.525,0.602-1.09,0.801
		c-15.116-1.456-30.258-0.27-45.379-0.635c-3.89-0.093-4.638,2.441-4.43,5.646c-1.157,5.603-2.252,12.476,2.664,15.501
		c4.405,2.712,11.058,0.24,16.775,0.88c-2.223,2.306-10.379,4.818-16.458,3.646c-6.463-1.248-12.815-0.386-19.203-0.674
		c-6.196-0.279-12.414-0.062-18.625-0.062c-11.276,0.844-22.546-0.366-33.929,0.846c-5.554,0.591-12.321-1.406-18.232-0.61
		c-13.403,1.808-26.805,0.318-40.195,0.902c-30.625,1.335-61.348,0.418-92.031,0.432c-1.542,0.001-3.12-0.277-4.61,0.377
		c-1.643-3.057-4.551-1.884-6.955-1.898c-15.888-0.093-31.777,0.004-47.665-0.099c-2.284-0.015-4.955,0.978-7.897-1.933
		c6.067-2.278,15.583,1.752,14.995-9.023c0.93-4.864-2.197-4.532-5.52-4.64c-20.979-0.674-41.954,0.267-62.922,0.059
		c-3.095,1.135-5.55-2.65-8.695-1.144c-1.941-2.018-5.455-2.896-1.686-7.216c2.04-2.337,3.285-6.481,4.699-9.875
		c2.774-6.657,8.779-10.492,15.196-13.496c3.339,1.258,5.952,0.565,8.518-4.234c-16.126,0.369-34.68-0.16-49.91,0.922
		c-4.093-3.312,1.608-3.966,5.003-3.959c12.724,0.028,25.451-0.143,38.17,0.091c4.818,0.089,8.342-0.822,10.913-5.472
		c2.802-5.066,7.944-8.092,12.503-11.479c8.361-6.215,12.11-17.62,8.592-26.838c-0.375-0.983-0.907-1.857-1.874-2.384
		c-11.635-6.335-23.427-11.004-36.343-3.333c-5.489,3.26-11.178,3.526-17.163,1.47c-11.917-4.098-22.859-1.441-33.233,4.998
		c-1.58,0.98-3.112,1.533-2.363,4.056c4.097,13.796,8.83,27.364,14.194,40.715c0.161,0.4-1.075,2.059-0.534,2.135
		c1.259,0.922,0.199,3.843,2.604,4.072c4.442,11.84,8.324,22.854,16.063,32.825c6.769,12.012,15.854,22.704,25.75,32.298
		c2.319,2.249,5.411,3.989,6.252,7.52c-0.552,1.044-1.6,1.509-2.498,1.017c-4.247-2.333-2.242-5.39-4.072-0.365
		c-0.107,0.296-1.426,0.115-2.183,0.116c-15.337-12.2-23.645-28.727-33.75-45c-6.795-10.943-13.957-21.596-17.75-34.139
		c1.05-0.117,3.087,1.872,2.938,0.08c-0.362-4.379-2.4-7.68-3.913-12.431c-3.434-10.79-8.357-21.078-10.912-32.129
		c-1.062-4.597-0.51-8.659,5.666-8.876c0.009,2.846,0.083,4.376,3.966,2.663c10.051-4.434,20.221-7.721,31.78-4.89
		c6.038,1.479,12.572,0.144,18.92-2.051c11.514-3.98,23.402-7.261,34.5,1.782c2.084,1.699,3.986,1.354,5.512-1.479
		c4.068-7.555,8.835-14.646,15.447-20.304c2.283-1.955,1.897-4.664,1.896-7.25c-0.005-8.056-0.002-16.112-0.002-24.173
		c-1.066-5.533,2.209-11.51-1.739-16.74c0.192-6.958,0.514-13.915-0.166-20.865c1.328-0.949,2.617-0.838,3.876,0.138
		c-0.938,10.099-0.165,20.217-0.402,30.323c-0.024,1.046,0.787,1.155,1.432,1.485c0.271,9.018,0.026,18.039,0.123,27.058
		c0.07,6.589,1.058,7.286,6.829,4.101c1.677-0.926,4.858-1.184,4.082-4.567c-1.011-6.683,2.021-13.669-1.516-20.161
		c-0.104-5.081-0.014-10.164-0.044-15.245c0.566-4.327-1.285-8.87,1.15-13.035c0.233,15.211,1.617,30.33,3.425,45.432
		c0.395,3.297,0.654,3.987,4.473,3.593c8.68-0.895,17.238-0.348,26.075,1.726c8.865,2.08,18.252,2.17,27.308,4.574
		c5.454,1.448,9.722,4.083,12.48,8.322c4.977,7.647,12.902,8.258,20.422,9.683c4.982,0.944,10.744-1.308,15.015,2.441
		c4.504,3.953,8.55,8.506,12.468,13.034c2.177,2.518,4.14,3.479,7.188,3.39c11.422-0.331,22.75-0.449,33.18,5.665
		c2.387,1.399,5.776,0.974,8.798-0.727c-7.393-3.117-14.508-6.389-21.219-10.575c-5.538-3.455-7.563-7.573-6.238-14.132
		c1.279-6.339,0.589-12.912,0.22-19.39c-0.803-14.054-3.402-27.824-1.869-42.243c1.644-15.447,12.42-25.069,19.158-37.204
		c2.6-4.68,13.095-5.968,17.184-3.694c6.896,3.837,11.639,12.421,9.045,19.524c-2.885,7.899,0.287,13.257,5.394,17.893
		c9.461,8.586,10.306,19.16,8.093,30.588c-0.732,3.784-1.111,7.627-1.831,11.415c-0.859,4.535-0.037,9.727,5.062,11.878
		c4.233,1.787,5.585,4.787,6.23,8.871c0.881,5.576,1.766,11.15,2.404,16.757c0.481,4.239-0.786,6.603-5.805,7.1
		c-5.244,0.519-10.677,0.326-15.823,2.303c10.224,2.911,20.835,4.022,30.977,1.931c18.347-3.786,36.948-6.4,54.617-13.659
		c12.275-5.043,25.945-3.46,38.512,0.222c12.131,3.555,24.261,4.945,36.649,4.144c3.871-0.249,8.328,3.598,11.311-0.266
		c2.233-2.894,5.329-7.178,6.177-10.889c2.548-11.162,5.15-19.386,5.5-30.75C671.309,389.365,666.869,387.745,670,380.75z"/>
	<path fill-rule="evenodd" clip-rule="evenodd" fill="#205488" d="M267.755,741.12c-3.705,7.533-9.962,13.119-12.931,20.634
		c-0.837,2.12-3.301,3.527-5.736,1.764c-1.987-1.44-6.31-0.249-5.13-5.503c1.715-7.639,2.398-15.509,1.479-24.151
		c-4.978,8.107-5.114,17.08-7.974,25.151c-9.953-4.792-9.92-4.781-5.344-19.573c2-6.461,4.145-12.905,5.599-19.495
		c0.549-2.489,1.379-2.627,3.408-2.729c4.62-0.231,8.246,2.989,12.734,3.327c2.093,0.158,1.505,2.81,1.06,3.825
		c-2.917,6.664-0.543,13.661-2.035,22.176c5.969-6.25,8.223-13.015,11.222-18.958c1.73-3.43,2.81-2.448,4.796-1.849
		c12.417,3.74,12.705,3.833,9.45,16.225c-2.08,7.915-6.07,15.403-7.51,23.389c-0.92,5.099-3.631,3.675-5.656,2.979
		c-2.021-0.695-5.089-1.394-3.501-5.676C264.272,755.686,265.789,748.318,267.755,741.12z"/>
	<path fill-rule="evenodd" clip-rule="evenodd" fill="#245588" d="M298.367,757.885c5.307-2.587,6.244-7.086,7.994-10.731
		c2.035-4.233,5.025-5.57,9.11-4.876c4.877,0.831,3.358,4.93,3.455,7.999c0.142,4.48,0.037,8.969,0.037,15.606
		c2.159-4.737,3.457-7.494,4.68-10.283c2.743-6.26,6.15-11.006,13.767-6.246c-5.07,10.232-10.11,20.643-15.413,30.917
		c-1.116,2.161-2.338,5.6-5.881,4.013c-2.896-1.299-7.114-1.614-6.543-6.734c0.722-6.479-1.409-13.169,2.724-21.025
		c-7.151,6.057-9.327,13.159-12.917,19.113c-3.643,6.043-6.366-0.253-9.562,0.626c-3.453,0.95-2.058-2.851-1.942-4.383
		c0.811-10.764,1.822-21.514,2.949-32.248c0.352-3.352,2.228-3.167,5.121-2.214c2.552,0.842,5.38-0.939,4.641,4.486
		C299.885,747.044,298.856,752.258,298.367,757.885z"/>
	<path fill-rule="evenodd" clip-rule="evenodd" fill="#1D5081" d="M461.708,768.501c-2.982,5.775-2.374,11.383-2.394,16.912
		c-0.011,3.063,0.535,6.784-4.031,6.597c-3.331-0.135-7.513,2.352-9.191-4.113c-2.284-8.8-6.367-17.13-9.605-25.689
		c-0.979-2.589-1.763-6.467,0.88-7.203c2.532-0.707,7.519-2.854,8.403,3.717c0.593,4.407,2.009,8.954,4.869,12.664
		c2.753-3.914,2.187-8.511,2.572-13.014c0.193-2.245-2.65-6.421,2.164-6.599c3.207-0.117,7.327-2.526,9.423,3.825
		c1.389,4.209,2.966,9.156,6.982,13.443c0-5.331,0.205-10.023-0.061-14.688c-0.242-4.277,1.363-5.79,5.685-6.023
		c5.038-0.273,3.701,2.926,3.715,5.477c0.048,9.604-0.335,19.225,0.176,28.802c0.241,4.515-2.193,6.015-5.358,6.253
		c-2.811,0.211-6.747,2.247-7.79-3.786C467.188,779.529,464.078,774.353,461.708,768.501z"/>
	<path fill-rule="evenodd" clip-rule="evenodd" fill="#205383" d="M559.186,723.531c2.236,0,3.57-0.201,4.819,0.038
		c4.019,0.769,6.755,3.292,8.815,6.724c0.718,1.193,0.256,2.421-0.64,2.435c-3.848,0.052-7.49,3.862-11.405,0.906
		c-1.649-1.244-2.871-2.671-5.303-2.391c-2.768,0.318-4.137,1.518-4.147,4.285c-0.015,3.226,2.458,2.074,3.896,1.947
		c4.57-0.405,8.868,1.41,13.271,1.943c3.975,0.479,8.532,3.357,9.478,9.337c0.808,5.102-0.612,9.259-4.014,11.861
		c-7.428,5.685-16.006,7.952-25.402,5.11c-3.881-1.173-4.9-4.797-6.622-7.729c-0.44-0.75,0.029-3.543,1-3.166
		c3.613,1.402,6.472-3.761,9.967-0.84c0.793,0.663,1.469,1.462,2.222,2.174c2.837,2.675,6,2.52,8.896,0.436
		c0.937-0.675,3.34-1.12,1.918-3.878c-1.928-3.733-5.377-5.222-8.354-4.078c-3.579,1.374-6.807,0.069-9.617-0.444
		c-4.558-0.833-8.616-4.381-9.056-9.664c-0.473-5.676,3.252-9.577,7.797-11.904C550.755,724.559,555.195,722.54,559.186,723.531z"/>
	<path fill-rule="evenodd" clip-rule="evenodd" fill="#235587" d="M588.74,736.842c-1.723-6.569-0.503-15.455-3.016-23.995
		c-0.86-2.925-0.856-6.806,3.46-7.713c3.18-0.669,5.786-5.072,9.923-0.362c7.268,8.276,15.719,15.501,22.518,24.24
		c1.081,1.388,4.832,3.4,0.813,4.786c-2.629,0.906-5.048,6.226-8.717,1.68c-1.534-1.901-3.352-3.978-5.594-2.202
		c-2.861,2.267-8.833,1.597-8.295,7.016c0.395,3.972-1.808,5.196-4.37,6.596c-4.593,2.51-7.145,1.568-6.736-4.155
		C588.818,741.442,588.74,740.141,588.74,736.842z"/>
	<path fill-rule="evenodd" clip-rule="evenodd" fill="#205284" d="M357.366,751.596c6.644-0.416,9.347,2.504,10.096,8.994
		c1.152,9.979,3.121,19.89,5.295,29.707c0.495,2.238,0.713,4.348-1.357,3.136c-3.399-1.989-10.275,2.604-10.581-5.802
		c-0.103-2.839-4.67-2.594-7.289-3.157c-1.773-0.381-4.136-1.271-5.308,2.224c-1.781,5.312-5.703,4.718-10.03,2.494
		c-1.705-0.876-2.702-1.152-1.493-3.058c6.354-10.013,8.938-21.888,15.787-31.715C354.003,752.243,355.063,751.067,357.366,751.596z
		"/>
	<path fill-rule="evenodd" clip-rule="evenodd" fill="#1F5283" d="M537.603,772.563c-5.152,1.013-10.17,6.292-14.355-1.325
		c-0.577-1.049-12.719,2.309-12.464,3.279c2.141,8.175-5.049,7.299-9.373,9.765c0-12.19,0.466-24.2-0.199-36.146
		c-0.325-5.823,2.551-7.273,6.877-8.72c4.307-1.44,6.716,0.787,8.883,3.855C523.676,752.771,530.362,762.281,537.603,772.563z"/>
	<path fill-rule="evenodd" clip-rule="evenodd" fill="#225388" d="M421.881,773.115c0,2.588,0,5.179,0,7.768
		c-0.003,9.563-4.276,14.241-13.117,14.362c-12.059,0.164-15.533-3.408-16.745-14.049c-0.746-6.548-1.227-13.034-1.352-19.594
		c-0.062-3.233-0.418-5.76,4.55-5.556c4.204,0.172,5.129,1.359,4.91,5.238c-0.385,6.813,2.455,13.418,1.543,20.346
		c-0.355,2.704,1.28,4.261,4.06,4.231c2.321-0.024,4.684,0.786,5.883-2.772c1.535-4.56,1.712-9.401,0.434-13.407
		c-1.082-3.387-0.724-6.479-1.014-9.674c-0.233-2.557-1.233-5.52,3.7-5.495c4.294,0.021,6.75,1.449,7.134,5.41
		c0.422,4.36,0.097,8.791,0.097,13.191C421.936,773.115,421.909,773.115,421.881,773.115z"/>
	<path fill-rule="evenodd" clip-rule="evenodd" fill="#2E451F" d="M437.475,408.575c0-17.519-1.154-35.14,0.37-52.524
		c1.189-13.563,7.905-25.9,16.478-36.674c2.709-3.406,8.008-4.668,11.469-2.881c3.691,1.906,6.216,4.92,4.905,11.555
		c-1.944,9.845-2.622,21.242,9.581,27.675c5.303,2.796,7.924,18.082,3.75,25.625c-3.464,6.264-5.197,12.443-1.595,19.668
		c1.189,2.388,2.492,5.247,4.294,5.785c7.967,2.38,8.422,9.385,9.896,15.412c0.909,3.72,1.005,8.594-5.445,8.37
		c-0.409-0.015-0.839,0.56-1.26,0.86c-3.378-7.904-9.763-0.653-13.931-2.139c-5.947-2.12-11.795-1.634-17.472-2.896
		c-4.222-0.936-4.236-1.791-11.907-1.071c-0.957,0.09-7.55-2.162-7.543-7.435c0.004-3.11,0.001-6.221,0.001-9.331
		C438.536,408.575,438.005,408.575,437.475,408.575z"/>
	<path fill-rule="evenodd" clip-rule="evenodd" fill="#354D23" d="M315.843,452.18c3.048-0.262,5.894,1.183,8.722,1.395
		c6.916,0.518,13.904,0.773,20.389-3.177c5.696-3.47,10.629-1.336,11.5,4.924c1.016,7.296-0.28,14.652-4.59,20.615
		c-4.439,6.143-6.739,12.456-6.452,19.991c0.271,7.086-2.07,14.071-0.074,21.323c1.679,6.1-1.025,8.623-7.795,8.38
		c-14.497-0.521-29.058,0.358-43.522-0.509c-3.822-0.23-7.81,5.106-10.781,0.378c-2.075-3.304,0.959-7.259,1.604-10.881
		c2.048-11.506,3.824-22.969,4.864-34.65c0.572-6.417,3.504-13.462,10.539-16.873c2.324-0.184,10.326-5.565,12.764-8.64
		C313.794,453.472,314.454,452.388,315.843,452.18z"/>
	<path fill-rule="evenodd" clip-rule="evenodd" fill="#116534" d="M525.026,443.131c11.227-0.748,22.16-3.595,31.556-8.621
		c13.501-7.222,26.374-5.824,40.354-3.355c12.422,2.193,24.514,7.758,37.544,5.355c4.876-0.898,9.463,1.952,14.418,0.234
		c2.978-1.032,2.64,2.312,2.161,3.488c-3.381,8.313-5.579,16.98-8.276,25.498c-0.494,1.56-1.072,3.859-4.554,3.768
		c-15.63-0.417-31.178,2.313-46.868,1.507c-3.948-0.203-6.634-0.73-7.357-5.17c-1.118-6.872-6.414-9.76-12.323-10.354
		c-6.642-0.667-6.236,5.895-7.826,9.981c-0.608,1.563,0.326,3.671-0.072,5.385c-0.728,3.128-3.275,3.203-6.035,3.255
		c-2.775,0.052-3.243-0.848-3.418-3.506c-0.705-10.746-8.674-18.275-19.166-16.332c-3.809,0.705-4.903-0.552-4.928-2.352
		C530.177,447.729,526.294,446.178,525.026,443.131z"/>
	<path fill-rule="evenodd" clip-rule="evenodd" fill="#26401D" d="M315.843,452.18c-4.991,4.048-9.982,8.096-14.991,12.122
		c-0.019,0.016-0.348-0.264-0.437-0.451c-0.108-0.227-0.115-0.501-0.166-0.755c0.564-1.822,2.921-3.668,1.302-5.419
		c-1.419-1.534-1.93,1.454-3.232,1.754c-4.52,1.039-8.66-2.552-9.036-7.389c-0.57-7.341,0.713-13.636,5.993-19.489
		c2.842-3.152,3.483-8.345,4.912-12.686c0.477-1.45,0.106-2.924-1.269-4.135c-5.932-5.222-18.558-4.384-22.773,2.446
		c-2.457,3.981-6.155,5.141-9.595,8.266c1.629-12.643,11.795-22.826,22.933-24.266c3.036-0.392,5.896-2.042,8.874-2.999
		c12.309-3.957,23.779,1.747,35.495,3.621c4.044,0.647,8.097,1.228,11.951,0.835c4.722-0.482,7.274,1.922,9.733,4.91
		c1.688,2.051,2.362,3.817-0.059,6.66c-3.916,4.6-7.812,9.616-5.465,16.769c1.112,3.391-7.616,10.806-12.727,10.723
		c-5.865-0.096-11.435,1.696-17.262,2.025c-4.499,0.253-7.545,6.867-14.318,3.91C309.042,452.71,313.623,448.1,315.843,452.18z"/>
	<path fill-rule="evenodd" clip-rule="evenodd" fill="#364E24" d="M405.225,527.031c-6.739,0-13.478-0.007-20.216,0.003
		c-4.454,0.005-6.551,0.407-5.647-6.537c1.479-11.366,5.665-22.641,3.553-34.423c-1.021-5.697,1.408-7.626,7.215-7.513
		c11.823,0.231,23.676,0.676,35.46-1.38c7.55-1.316,13.607-5.411,19.164-10.015c2.785-2.307,6.753-1.95,8.894-5.229
		c0.946-1.451,3.113,0.447,2.971,0.925c-1.133,3.795-1.904,10.155-4.152,10.774c-20.589,5.676-19.16,13.787-21.25,28.877
		c-0.854,6.158,1.124,12.018,1.637,18.028c0.437,5.122-1.625,6.816-6.639,6.574C419.232,526.779,412.223,527.031,405.225,527.031z"
		/>
	<path fill-rule="evenodd" clip-rule="evenodd" fill="#364E23" d="M447.388,526.586c-1.296-12.677-7.162-24.308-5.43-37.251
		c0.838-6.26,1.421-11.205,9.017-12.266c5.969-0.833,9.889-4.657,12.987-9.955c2.759-4.717,7.46-8.07,11.088-12.243
		c2.651-3.051,7.751-1.657,11.123,0.459c5.306,3.332,10.303,7.267,17.021,6.137c3.286-0.553,3.244,2.231,3.815,3.598
		c1.154,2.759,1.984,6.344-1.18,8.286c-7.21,4.426-13.393,10.777-23.168,10.188c-9.001-0.543-13.292,3.716-10.202,8.785
		c1.38,2.266,1.527,5.523,2.572,6.585c5.953,6.049,2.403,13.033,3.042,19.563c0.528,5.398-1.453,7.231-6.939,7.136
		C463.296,525.469,455.333,524.495,447.388,526.586z"/>
	<path fill-rule="evenodd" clip-rule="evenodd" fill="#304921" d="M351.709,508.274c-2.419-12.057,4.835-23.44,9.773-35.426
		c0.826-2.007,2.665-3.999,2.548-5.907c-0.245-3.998,2.054-4.865,4.561-3.697c5.843,2.723,10.24-1.068,13.543-3.827
		c8.827-7.372,17.555-11.356,28.753-5.729c6.114,3.073,11.759,0.698,17.232-2.276c3.18-1.728,6.598-3.064,9.623-5.018
		c5.792-3.739,9.063-1.524,11.382,4.11c0.64,1.556,1.987,2.817,2.654,4.367c0.559,1.297,3.952,1.321,1.783,3.828
		c-2.314,2.674-2.833-0.615-3.81-1.363c-2.51-1.921-4.37,0.799-5.188,1.455c-11.179,8.961-24.186,10.527-37.835,10.664
		c-6.263,0.063-12.702,0.689-18.854,0.894c-11.009,0.363-11.166,9.063-12.281,14.603c-2.491,12.374-6.847,24.709-5.184,37.718
		c0.226,1.77-0.144,3.076-2.378,2.806c-0.511-0.062-1.039-0.032-1.556-0.001C351.709,526.361,351.709,526.362,351.709,508.274z"/>
	<path fill-rule="evenodd" clip-rule="evenodd" fill="#13331F" d="M389.812,247.896c-1.407-2.547-0.285-5.036-0.655-7.514
		c-0.883-5.907-3.083-10.443-9.28-12.869c-6.082-2.381-12.688-3.978-17.392-9.311c-1.641-1.86-0.967-3.881-0.266-5.297
		c0.531-1.073,4.814-0.958,7.094-1.094c4.219-0.25,3.914-2.38,4.317-5.419c0.495-3.727-1.161-4.299-4.671-3.681
		c-11.813,2.081-23.748,1.31-34.996,1.568c-0.138,3.512,0.373,5.966,1.433,7.532h12.152c1.261-0.167,2.367,0.5,2.752,3.047
		c0.66,4.361-4.013,9.587-10.443,9.585c-14.354-0.005-28.591,2.019-42.988,1.918c-7.902-0.056-16.827,0.965-21.909,8.787
		c-4.13,6.355-3.643,13.33-3.189,20.975c1.278,21.54-0.112,43.209,1.942,64.774c0.305,3.197-1.237,6.431,0.025,9.649
		c1.04,0,2.08,0,3.119,0c0-1.753,0-3.506,0-5.255c0-1.345,0-2.694,0-4.04c-1.381-18.255-1.889-36.54-1.569-54.849
		c0.053-3.048-0.784-6.067,4.324-6.194c5.202-0.13,5.255,2.561,5.06,6.243c-0.634,11.899-1.545,23.834-0.448,35.708
		c0.404,4.373-0.86,8.73,0.43,13.012c1.647,12.378,2.245,24.788,1.103,37.249c0.292,1.01,0.964,1.516,2.016,1.517
		c1.003-4.098-2.085-8.708,1.56-12.475c1.115-28.897-1.596-57.725-1.655-86.604c-0.01-5.146,1.617-9.663,6.473-9.897
		c5.819-0.281,11.335-2.133,17.265-1.936c8.072,0.268,16.195,0.978,24.346-1.13c4.399-1.137,9.396-0.786,13.956,1.665
		c6.784,3.646,13.185,3.074,18.271-3.323c1.782-2.243,3.152-1.88,4.972-0.002c2.543,2.624,3.56,5.65,2.937,9.147
		c-0.235,1.317,0.188,2.26,0.793,3.119h11.076c0.057-0.019,0.114-0.03,0.17-0.051C389.313,251.931,390.741,249.578,389.812,247.896z
		"/>
	<polygon fill-rule="evenodd" clip-rule="evenodd" fill="#13331F" points="371.093,202.45 333.963,202.499 333.963,204.75 
		370.158,204.28 	"/>
	<path fill-rule="evenodd" clip-rule="evenodd" fill="#344E23" d="M531.038,509.943c-0.947-10.057-2.071-21.574-3.104-33.1
		c-0.571-6.38,3.021-11.372,6.391-16.057c4.974-6.91,9.996-0.029,14.626,1.234c3.787,1.034,3.181,4.661,0.163,7.178
		c-1.739,1.451,0.424,1.972,0.69,2.941c4.054,14.824,2.562,29.431-1.553,43.98c-0.373,1.317-0.052,3.117,0.578,4.378
		c2.215,4.429-0.877,4.612-3.748,4.934C533.592,526.721,531.039,524.153,531.038,509.943z"/>
	<path fill-rule="evenodd" clip-rule="evenodd" fill="#29411D" d="M406.759,436.932c-4.291,0-7.808,0-12.065,0
		c6.372,3.809,13.265-2.383,18.625,2.793c5.344,5.16,12.657-4.868,17.83,2.45c-0.918,0.384-1.882,0.61-2.643,1.133
		c-7.037,4.843-13.854,7.292-21.215,0.148c-1.38-1.338-4.907-0.362-7.417-0.67c-1.976-0.242-4.419,1.189-5.882-0.717
		c-6.667-8.69-9.376-1.042-12.429,3.157c-2.512,3.454-3.822,7.859-8.933,8.551c-6.902,0.934-14.082-5.299-14.64-12.871
		c-0.312-4.237,0.018-8.393-1.438-12.668c-2.069-6.083,4.69-7.333,7.423-10.742c2.928-3.651,3.971,1.339,6.009,2.043
		c2.03,0.701,4.17,2.957,5.824,2.584C389.446,419.054,396.71,429.491,406.759,436.932z"/>
	<path fill-rule="evenodd" clip-rule="evenodd" fill="#334C23" d="M505.28,525.471c-2.068,0-4.204-0.34-6.191,0.061
		c-7.846,1.577-10.303-2.165-8.489-9.033c1.983-7.506,0.959-15.064,1.526-22.578c0.594-7.871,8.499-8.403,13.271-11.944
		c2.408-1.788,4.553-5.861,8.48-3.934c4.352,2.136,2.689,6.591,3.196,10.27c1.365,9.893,3.728,19.59,3.26,29.778
		c-0.256,5.558-0.96,8.561-7.31,7.452C510.515,525.104,507.865,525.471,505.28,525.471z"/>
	<path fill-rule="evenodd" clip-rule="evenodd" fill="#FFFFFF" d="M518.563,530.148c-1.147,2.758-2.256,4.577-6.156,4.85
		c-43.671,3.052-87.387,0.573-131.07,1.389c-5.198,0-10.396,0-15.594,0c-15.25,0-30.501,0.015-45.751-0.01
		c-4.923-0.007-9.595-0.857-14.716-4.669c8.626,0,15.834,0,23.042,0C391.733,531.188,455.148,530.669,518.563,530.148z"/>
	<path fill-rule="evenodd" clip-rule="evenodd" fill="#314921" d="M453.031,447.369c7.655,1.027,12.064-3.793,18.111-3.367
		c12.428,0.874,24.906-3.721,37.385,0.264c1.877,0.6,4.102,0.147,6.164,0.119c5.484-0.075,9.962,3.206,11.263,7.463
		c1.366,4.468,5.15,10.763-2.14,14.659c-1.313,0.703-2.171,2.216-3.348,3.228c-1.476,1.269-2.421,3.505-5.106,2.654
		c-3.242-1.027-1.233-3.499-1.384-5.194c-0.695-7.852-4.623-12.494-13.243-13.262c-3.923-0.349-7.33-1.42-10.334-3.395
		c-7.75-5.098-14.988-3.627-21.968,1.173C462.671,455.671,458.295,454.584,453.031,447.369z"/>
	<path fill-rule="evenodd" clip-rule="evenodd" fill="#27451F" d="M281.918,481.402c-4.568,2.124-6.054,5.268-5.028,9.452
		c1.505,6.141-6.977,8.965-4.9,15.22c-0.94,0.227-1.87,0.566-2.824,0.66c-6.779,0.668-13.387-1.032-20.086-1.498
		c-2.513-0.176-1.311-2.131-1.786-3.366c-2.091-5.438-3.335-11.34-9.787-16.083c12.854-1.39,25.352,2.261,34.977-7.513
		C274.143,479.724,277.755,480.411,281.918,481.402z"/>
	<path fill-rule="evenodd" clip-rule="evenodd" fill="#2C4620" d="M585.991,489.748c-0.973,3.126-0.056,5.249-1.041,7.642
		c-1.756,4.268-3.833,5.172-7.182,2.181c-1.614-1.442-3.481-1.64-5.229-2.397c-4.061-1.761-8.398-3.979-7.239-9.929
		c0.278-1.432,0.354-2.942-1.025-4.238c-1.257-1.18,0.403-3.667-1.715-4.702c3.89-6.096,6.067-12.875,8.65-19.545
		c0.859-2.219,7.521,2.373,7.876,4.265C580.845,472.37,583.804,481.407,585.991,489.748z"/>
	<path fill-rule="evenodd" clip-rule="evenodd" fill="#25421E" d="M236.127,499.077c-0.24,1.387-0.103,5.126-1.578,8.055
		c-2.183,4.336-7.132,0.116-10.444,2.188c-0.483,0.303-2.145-1.149-2.538-0.849c-3.249,2.499-8.516,2.603-9.641,0.528
		c-1.932-3.557,1.728-7.626,3.216-11.398c2.74-6.941,9.54-9.45,15.536-10.327C234.975,486.646,236.713,492.356,236.127,499.077z"/>
	<path fill-rule="evenodd" clip-rule="evenodd" fill="#23401D" d="M268.005,459.953c-1.806,0-3.619-0.115-5.414,0.022
		c-4.159,0.32-3.286-2.342-2.278-4.313c1.014-1.982,3.18-3.384,4.156-5.375c1.625-3.315-3.871-10.203,3.619-10.085
		c4.419,0.069,8.217-1.061,12.296-1.674c1.607-0.241,1.42,1.433,1.086,1.878c-3.108,4.146,0.635,7.034,1.405,10.584
		c1.335,6.151-4.115,7.694-8.713,8.932c-1.922,0.517-4.098,0.086-6.158,0.086C268.005,459.989,268.005,459.971,268.005,459.953z"/>
	<path fill-rule="evenodd" clip-rule="evenodd" fill="#FFFFFF" d="M604.329,505.198c0.521,0,1.04,0,1.56,0
		c1.465,0.997,2.93,1.994,4.395,2.991c-1.593,1.41-3.5,1.461-5.534,1.803c-17.242,2.904-34.597,0.781-51.879,1.444
		c-0.715-5.265,1.971-6.399,6.726-6.325C574.503,505.344,589.418,505.198,604.329,505.198z"/>
	<path fill-rule="evenodd" clip-rule="evenodd" fill="#FFFFFF" d="M281.536,518.051c-18.022,0-36.048-0.108-54.066,0.068
		c-5.078,0.05-9.639-1.567-14.81-1.007c-1.484,0.16-1.17-1.084-1.297-1.776c13.544-0.566,27.1,0.089,40.738-0.519
		c8.454-0.376,17.713,0.34,26.603,0.459C283.123,515.336,280.977,517.012,281.536,518.051z"/>
	<path fill-rule="evenodd" clip-rule="evenodd" fill="#254420" d="M249.444,478.641c-2.193-0.795-5.658,1.907-6.712-1.354
		c-1.492-4.616,0.559-9.068,3.774-12.192c1.674-1.627,5.22-4.208,7.704-0.382c2.653,4.089,7.606-0.826,11.05,4.007
		c3.95,5.543,0.257,8.125-2.516,8.224C258.187,477.104,254.07,479.967,249.444,478.641z"/>
	<path fill-rule="evenodd" clip-rule="evenodd" fill="#13331F" d="M289.333,389.804c-3.672-6.515-0.482-13.558-1.56-20.272
		C291.446,376.047,288.256,383.09,289.333,389.804z"/>
	<path fill-rule="evenodd" clip-rule="evenodd" fill="#D9E5EC" d="M596.543,717.602c3.064,2.372,6.837,3.973,7.367,7.99
		c0.074,0.561-5.072,3.008-5.977,2.287C594.661,725.271,597.661,721.145,596.543,717.602z"/>
	<path fill-rule="evenodd" clip-rule="evenodd" fill="#CED9E2" d="M355.791,762.085c3.237,4.8,3.646,7.77,3.824,10.999
		c0.202,3.636-1.715,3.582-4.217,3.465c-3.694-0.172-2.367-3.428-2.071-4.609C354.012,769.201,357.67,767.737,355.791,762.085z"/>
	<path fill-rule="evenodd" clip-rule="evenodd" fill="#E6EDF0" d="M510.777,750.814c2.192,3.436,3.874,5.954,5.419,8.555
		c0.57,0.958,3.173,1.97,1.079,2.961c-1.342,0.637-2.499,2.266-4.666,1.797c-2.372-0.514-1.836-1.897-1.833-3.332
		C510.781,757.838,510.777,754.88,510.777,750.814z"/>
	<path fill-rule="evenodd" clip-rule="evenodd" fill="#1C5187" d="M384.441,262.696c0.292,3.058-0.458,5.308-3.788,5.438
		c-2.811,0.11-4.583-1.757-3.877-4.244c0.734-2.584,1.243-6.518,4.922-6.387C384.178,257.593,384.926,260.339,384.441,262.696z"/>
	<path fill-rule="evenodd" clip-rule="evenodd" fill="#2C5E94" d="M382.853,279.778c0.568,2.5-0.268,5.06-2.705,5.367
		c-2.549,0.32-3.69-1.963-3.509-4.644c0.169-2.523,0.951-5.512,3.204-5.777C382.334,274.431,383.328,277.104,382.853,279.778z"/>
	<path fill-rule="evenodd" clip-rule="evenodd" fill="#43698D" d="M382.87,294.689c0.309,1.956,0.033,3.362-2.611,3.185
		c-1.682-0.113-1.951-0.851-2.094-2.311c-0.222-2.262,1.393-3.604,2.808-3.961C383.114,291.061,383.049,293.063,382.87,294.689z"/>
	<path fill-rule="evenodd" clip-rule="evenodd" fill="#43698D" d="M381.682,303.478c0.145,0.915,0.016,1.572-1.221,1.489
		c-0.786-0.053-0.912-0.398-0.979-1.081c-0.104-1.058,0.651-1.685,1.313-1.852C381.795,301.782,381.765,302.718,381.682,303.478z"/>
	<path fill-rule="evenodd" clip-rule="evenodd" fill="#FFFFFF" d="M356.387,572.252c-0.933-0.232-2.459-0.205-2.697-0.744
		c-0.984-2.235,0.729-1.967,2.275-2.453c6.68-2.1,13.654-2.479,20.461-2.85c11.754-0.641,23.635-0.948,35.12,2.874
		c1.234,0.41,2.707,0.14,2.33,1.981c-0.363,1.777-1.937,1.164-3.11,1.166c-8.77,0.02-17.54,0.02-26.31,0.025
		C375.1,572.252,365.743,572.252,356.387,572.252z"/>
	<path fill-rule="evenodd" clip-rule="evenodd" fill="#0F1C10" d="M356.387,572.252c9.356,0,18.713,0,28.069,0
		c6.863,3.954,14.387-0.129,21.435,2.074c-0.904,3.574-3.999,2.587-6.576,2.592c-13.759,0.027-27.52,0.114-41.274-0.101
		c-2.006-0.031-5.22,1.97-6.092-1.212C351.012,572.188,356.506,575.607,356.387,572.252z"/>
	<path fill-rule="evenodd" clip-rule="evenodd" fill="#FFFFFF" d="M431.4,546.669c1.831-4.676,6.397-2.555,9.41-3.086
		c10.703-1.888,21.595-1.654,32.35,0.58c1.287,0.267,1.84,0.858,1.523,2.001c-0.483,1.736-1.995,1.106-3.167,1.11
		c-8.518,0.024-17.046-0.242-25.546,0.14c-4.746,0.213-9.472,3.057-14.11-0.371C431.667,546.9,431.487,546.741,431.4,546.669z"/>
	<path fill-rule="evenodd" clip-rule="evenodd" fill="#0F1C10" d="M476.46,573.812c5.137,0.455,10.649-1.484,16.113,3.095
		c-20.074,0-39.29-0.015-58.505,0.029c-1.394,0.003-2.776,0.087-2.669-1.704c0.112-1.884,1.788-1.362,2.958-1.395
		c2.077-0.058,4.158-0.022,6.236-0.025C452.549,573.812,464.505,573.812,476.46,573.812z"/>
	<path fill-rule="evenodd" clip-rule="evenodd" fill="#FFFFFF" d="M476.46,573.812c-11.955,0-23.911,0-35.866,0
		c1.463-4.772,5.521-4.59,9.261-4.643c8.313-0.12,16.633-0.196,24.938,0.079c2.022,0.068,5.227-1.967,6.104,1.205
		C481.843,573.879,476.338,570.455,476.46,573.812z"/>
	<path fill-rule="evenodd" clip-rule="evenodd" fill="#FFFFFF" d="M336.115,548.861c-3.043-3.535,1.529-4.274,2.395-4.312
		c9.444-0.405,18.907-0.511,28.362-0.411c3.416,0.035,1.43,3.083,1.991,4.723C357.946,548.861,347.031,548.861,336.115,548.861z"/>
	<path fill-rule="evenodd" clip-rule="evenodd" fill="#55BEC8" d="M365.743,536.387c5.198,0,10.396,0,15.594,0
		c0.126,1.732,2.494,1.603,2.518,1.833c0.295,2.904-1.906,0.864-2.935,1.273C375.226,541.751,369.551,543.496,365.743,536.387z"/>
	<path fill-rule="evenodd" clip-rule="evenodd" fill="#70B9A2" d="M345.428,210.475c-2.072-1.259-7.503,2.372-7.364-2.278
		c0.15-5.015,6.368-2.968,8.54-2.938c8.506,0.116,14.152-0.174,21.513-0.831c1.426-0.127,3.255-1.076,3.842,1.182
		c0.41,1.58,0.459,3.762-2.583,3.347c-2.254-0.308-4.41-0.164-6.455,1.5c-1.367,1.111-4.971-1.795-4.961,2.516
		c0.008,3.283-0.911,7.432,2.917,8.81c7.793,2.807,4.928,9.871,6.083,14.949c0.669,2.94-3.106,5.158-7.073,5.011
		c-4.601-0.17-9.77,0.838-11.277-5.143c-0.832-3.296,0.955-7.083-1.498-10.29c-0.169-0.221,0.566-1.664,0.934-1.687
		c9.709-0.605,5.7-7.66,5.931-12.636C354.044,210.482,353.813,210.472,345.428,210.475z"/>
	<path fill-rule="evenodd" clip-rule="evenodd" fill="#5DA996" d="M346.452,239.01c-13.294-1.87-25.009,1.834-37.063,1.255
		c-5.266-0.253-8.989-0.4-7.649-7.139c0.208-1.044-0.726-2.316-1.208-3.695c12.143-0.596,24.406-1.105,36.656-1.831
		C345.22,227.125,343.179,234.056,346.452,239.01z"/>
	<path fill-rule="evenodd" clip-rule="evenodd" fill="#6BB9A2" d="M275.283,249.389c0.413-13.354,6.197-16.746,17.471-18.634
		c5.136-0.86,5.263,2.921,5.968,6.376c1.023,5.012-2.149,4.612-5.369,4.557c-5.684-0.098-8.855,2.854-8.59,8.479
		c0.181,3.817-1.087,7.126-4.587,6.831C276.306,256.67,274.55,253.053,275.283,249.389z"/>
	<path fill-rule="evenodd" clip-rule="evenodd" fill="#8EC9B5" d="M387.552,243.938c-0.854,1.768,2.308,5.737-3.215,5.63
		c-4.009-0.078-6.67-0.923-6.073-5.453c0.602-4.579-2.831-6.884-5.667-8.284c-3.932-1.942-2.645-5.45-1.949-6.926
		c1.174-2.489,4.002-1.668,6.442-0.147C382.75,232.285,387.986,235.937,387.552,243.938z"/>
</g>
<linearGradient id="SVGID_2_" gradientUnits="userSpaceOnUse" x1="144.0005" y1="374.0005" x2="673.999" y2="374.0005">
	<stop  offset="0" style="stop-color:#0E301A"/>
	<stop  offset="1" style="stop-color:#122816"/>
</linearGradient>
<circle fill="none" stroke="url(#SVGID_2_)" stroke-width="14" stroke-miterlimit="10" cx="409" cy="374" r="257.999"/>
<g>
	<path fill="#3953A4" d="M99.566,291.084l4.023-12.199l24.384,2.825l-21.292-12.202l4.021-12.191l37.525,12.376l-2.505,7.597
		l-28.618-9.438l26.687,15.293l-2.268,6.876l-30.545-3.595l28.618,9.438l-2.505,7.597L99.566,291.084z"/>
	<path fill="#3953A4" d="M112.523,252.088l4.121-8.313l21.302,6.831l-17.647-14.204l4.105-8.282l21.97,5.421l-18.308-12.809
		l4.1-8.269l32.307,23.792l-4.254,8.582l-24.752-6.082l19.837,15.999l-4.254,8.581L112.523,252.088z"/>
	<path fill="#3953A4" d="M173.542,210.263l-6.165,9.218l4.565,4.908l-5.544,8.289l-26.241-31.842l5.923-8.856l39.449,12.092
		l-5.687,8.503L173.542,210.263z M165.313,207.198l-13.747-4.997l9.887,10.767L165.313,207.198z"/>
	<path fill="#3953A4" d="M155.774,178.237l5.92-6.939l24.355,5.137l-16.629-14.19l5.977-7.004l30.057,25.649l-5.977,7.004
		l-24.188-5.079l16.504,14.084l-5.963,6.986L155.774,178.237z"/>
	<path fill="#3953A4" d="M180.554,149.978l20.206-18.865l5.39,5.772l2.811,29.013l13.443-12.551l5.794,6.206l-21.923,20.469
		l-5.592-5.989l-2.782-28.71l-11.589,10.821L180.554,149.978z"/>
	<path fill="#3953A4" d="M241.14,141.686l-8.883,6.639l2.67,6.146l-7.989,5.97l-14.134-38.764l8.534-6.378l33.167,24.543
		l-8.193,6.122L241.14,141.686z M234.402,136.055l-11.297-9.291l5.737,13.445L234.402,136.055z"/>
	<path fill="#3953A4" d="M265.485,88.638l8.648-4.493l10.855,20.889c1.077,2.072,1.834,4.162,2.274,6.271
		c0.44,2.109,0.466,4.14,0.079,6.091c-0.388,1.951-1.042,3.521-1.964,4.708c-1.278,1.656-3.098,3.097-5.457,4.323
		c-1.365,0.709-2.917,1.363-4.654,1.963c-1.738,0.6-3.333,0.827-4.786,0.681c-1.453-0.146-2.969-0.638-4.547-1.478
		c-1.578-0.839-2.893-1.865-3.945-3.08c-1.694-1.951-2.989-3.789-3.883-5.51l-10.854-20.89l8.648-4.493l11.113,21.387
		c0.994,1.912,2.193,3.186,3.601,3.819c1.407,0.635,2.863,0.561,4.369-0.221c1.493-0.775,2.387-1.913,2.685-3.414
		c0.298-1.499-0.058-3.222-1.068-5.165L265.485,88.638z"/>
	<path fill="#3953A4" d="M295.695,117.59l-13.541-37.12l15.293-5.579c2.836-1.035,5.114-1.521,6.835-1.461
		c1.721,0.062,3.34,0.747,4.859,2.058c1.519,1.311,2.709,3.148,3.571,5.512c0.751,2.061,1.048,3.964,0.89,5.714
		c-0.158,1.751-0.682,3.314-1.573,4.691c-0.568,0.876-1.464,1.758-2.688,2.645c1.26,0.059,2.223,0.224,2.888,0.496
		c0.449,0.182,1.175,0.654,2.179,1.417c1.005,0.763,1.714,1.376,2.127,1.838l8.367,9.135l-10.368,3.782l-9.043-9.555
		c-1.157-1.242-2.059-1.994-2.705-2.256c-0.871-0.332-1.726-0.346-2.563-0.04l-0.811,0.296l5.496,15.066L295.695,117.59z
		 M296.857,92.148l3.869-1.411c0.418-0.153,1.168-0.617,2.247-1.394c0.552-0.373,0.907-0.942,1.064-1.707
		c0.157-0.766,0.088-1.552-0.208-2.364c-0.438-1.197-1.076-2.007-1.918-2.427c-0.842-0.419-2.1-0.323-3.774,0.286l-4.031,1.472
		L296.857,92.148z"/>
	<path fill="#3953A4" d="M315.458,68.482l17.708-4.556c2.951-0.758,5.452-0.429,7.502,0.992c2.051,1.422,3.423,3.48,4.116,6.178
		c0.582,2.263,0.518,4.348-0.194,6.256c-0.474,1.273-1.354,2.408-2.641,3.406c2.37,0.097,4.28,0.815,5.731,2.158
		c1.451,1.344,2.49,3.232,3.117,5.67c0.511,1.982,0.6,3.862,0.27,5.635c-0.33,1.773-1.018,3.287-2.061,4.538
		c-0.646,0.778-1.736,1.504-3.27,2.177c-2.041,0.896-3.409,1.434-4.105,1.612l-16.33,4.2L315.458,68.482z M328.862,81.037
		l4.114-1.06c1.476-0.379,2.421-0.96,2.835-1.744c0.414-0.783,0.468-1.776,0.158-2.977c-0.286-1.113-0.799-1.909-1.538-2.388
		c-0.739-0.479-1.825-0.532-3.259-0.163l-4.177,1.074L328.862,81.037z M332.73,96.072l4.823-1.24c1.629-0.42,2.685-1.076,3.167-1.97
		c0.483-0.896,0.567-1.951,0.254-3.169c-0.291-1.13-0.855-1.954-1.693-2.472s-2.086-0.564-3.742-0.138l-4.803,1.236L332.73,96.072z"
		/>
	<path fill="#3953A4" d="M373.476,90.04l-10.979,1.563l-0.607,6.675l-9.874,1.404l6.2-40.793l10.548-1.501l17.323,37.448
		l-10.127,1.439L373.476,90.04z M370.267,81.867l-5.454-13.571l-1.418,14.549L370.267,81.867z"/>
	<path fill="#3953A4" d="M385.533,55.433l9.118-0.213l12.408,21.578l-0.508-21.854l9.204-0.215l0.92,39.503l-9.205,0.215
		l-12.339-21.414l0.504,21.688l-9.183,0.214L385.533,55.433z"/>
	<path fill="#3953A4" d="M435.66,55.434l9.164,1.446l-0.146,22.37l8.275-21.088l9.131,1.44l1.4,22.584l6.744-21.3l9.117,1.438
		l-13.039,37.945l-9.462-1.492l-1.601-25.438l-9.332,23.713l-9.461-1.492L435.66,55.434z"/>
	<path fill="#3953A4" d="M493.816,101.161l-10.639-3.13l-3.318,5.822l-9.568-2.814l22.548-34.555l10.222,3.007l0.246,41.259
		l-9.814-2.886L493.816,101.161z M494.283,92.391l0.661-14.611l-7.321,12.652L494.283,92.391z"/>
	<path fill="#3953A4" d="M513.5,72.631l27.533,11.112l-3.65,9.048l-9.238-3.729l-11.135,27.594l-9.059-3.654l11.135-27.594
		l-9.236-3.729L513.5,72.631z"/>
	<path fill="#3953A4" d="M546.227,86.274l23.131,12.257l-3.949,7.454l-14.48-7.672l-2.941,5.549l13.434,7.117l-3.773,7.122
		l-13.432-7.118l-3.648,6.883l14.9,7.895l-4.189,7.907l-23.551-12.478L546.227,86.274z"/>
	<path fill="#3953A4" d="M553.516,135.019l22.156-32.717l13.479,9.129c2.5,1.692,4.229,3.255,5.188,4.685
		c0.959,1.431,1.352,3.145,1.178,5.145c-0.173,1.997-0.965,4.039-2.375,6.121c-1.229,1.815-2.6,3.172-4.11,4.069
		c-1.511,0.896-3.085,1.388-4.724,1.473c-1.043,0.053-2.281-0.157-3.717-0.63c0.691,1.056,1.121,1.933,1.289,2.632
		c0.115,0.47,0.158,1.335,0.128,2.597s-0.11,2.194-0.243,2.799l-2.504,12.134l-9.139-6.19l2.448-12.924
		c0.329-1.666,0.409-2.838,0.243-3.514c-0.24-0.901-0.729-1.602-1.467-2.102l-0.715-0.483l-8.992,13.278L553.516,135.019z
		 M574.818,121.06l3.409,2.31c0.368,0.25,1.184,0.585,2.444,1.004c0.627,0.229,1.295,0.184,2.008-0.138
		c0.712-0.319,1.311-0.838,1.793-1.553c0.716-1.056,0.997-2.048,0.844-2.977c-0.152-0.927-0.967-1.891-2.441-2.891l-3.553-2.406
		L574.818,121.06z"/>
	<path fill="#3953A4" d="M596.816,150.043l7.303,5.793c-1.137,1.521-1.816,2.853-2.036,3.997c-0.353,1.856,0.157,3.42,1.525,4.691
		c1.022,0.949,2.087,1.383,3.196,1.298c1.109-0.086,2.031-0.523,2.766-1.313c0.697-0.75,1.057-1.666,1.082-2.748
		c0.023-1.082-0.678-2.775-2.105-5.084c-2.318-3.798-3.467-7.049-3.445-9.752c0.01-2.715,1.066-5.203,3.172-7.468
		c1.381-1.486,3.032-2.57,4.951-3.253c1.918-0.682,3.922-0.758,6.011-0.227c2.087,0.53,4.337,1.915,6.749,4.156
		c2.959,2.75,4.574,5.535,4.85,8.354c0.275,2.819-0.835,5.865-3.328,9.141l-7.203-5.774c1.031-1.469,1.535-2.767,1.512-3.894
		c-0.023-1.125-0.539-2.157-1.551-3.097c-0.832-0.773-1.664-1.136-2.494-1.086s-1.539,0.391-2.127,1.021
		c-0.428,0.462-0.641,1.037-0.635,1.729c-0.018,0.695,0.451,1.794,1.41,3.298c2.344,3.749,3.791,6.684,4.344,8.803
		c0.551,2.12,0.542,4.104-0.028,5.953c-0.571,1.85-1.591,3.564-3.058,5.144c-1.725,1.854-3.727,3.185-6.004,3.987
		s-4.528,0.924-6.754,0.363c-2.227-0.561-4.461-1.883-6.705-3.967c-3.938-3.661-5.783-7.145-5.538-10.447
		C592.92,156.358,594.301,153.152,596.816,150.043z"/>
	<path fill="#3953A4" d="M653.814,170.542l6.342,7.401l-17.875,15.318c-1.773,1.519-3.637,2.731-5.59,3.64
		c-1.953,0.907-3.925,1.395-5.914,1.461c-1.988,0.065-3.665-0.215-5.031-0.843c-1.902-0.868-3.719-2.313-5.449-4.331
		c-1-1.168-1.99-2.53-2.97-4.087c-0.979-1.557-1.562-3.058-1.751-4.506c-0.188-1.447-0.053-3.035,0.406-4.762
		c0.459-1.729,1.16-3.242,2.102-4.544c1.518-2.094,3.012-3.771,4.484-5.033l17.875-15.318l6.342,7.401l-18.301,15.683
		c-1.637,1.402-2.604,2.859-2.902,4.374c-0.297,1.515,0.105,2.915,1.209,4.204c1.095,1.277,2.406,1.891,3.935,1.84
		c1.528-0.052,3.124-0.789,4.788-2.215L653.814,170.542z"/>
	<path fill="#3953A4" d="M664.98,184.491l9.098,13.448c1.98,2.93,2.594,5.712,1.84,8.349c-0.754,2.636-2.739,5.041-5.953,7.217
		c-3.305,2.234-6.424,3.187-9.36,2.856c-2.937-0.331-5.507-2.128-7.714-5.39l-2.996-4.43l-12.145,8.216l-5.498-8.125L664.98,184.491
		z M656.523,202.056l1.342,1.981c1.056,1.561,2.135,2.427,3.24,2.6c1.104,0.174,2.184-0.098,3.24-0.813
		c1.027-0.695,1.713-1.559,2.057-2.589c0.344-1.031,0.004-2.302-1.02-3.815l-1.559-2.303L656.523,202.056z"/>
	<path fill="#3953A4" d="M683.273,212.257l7.645,14.325c1.666,3.12,1.984,5.951,0.959,8.494s-3.25,4.729-6.674,6.557
		c-3.52,1.879-6.722,2.5-9.607,1.864c-2.885-0.635-5.254-2.691-7.109-6.166l-2.518-4.717l-12.936,6.903l-4.619-8.655
		L683.273,212.257z M673.031,228.845l1.127,2.11c0.887,1.663,1.869,2.637,2.949,2.924c1.08,0.286,2.184,0.131,3.309-0.471
		c1.094-0.584,1.865-1.37,2.316-2.359c0.449-0.99,0.244-2.289-0.615-3.9l-1.311-2.453L673.031,228.845z"/>
	<path fill="#3953A4" d="M698.496,241.729l3.721,9.03l-27.535,11.349l5.809,14.095l-8.996,3.708l-9.531-23.126L698.496,241.729z"/>
	<path fill="#3953A4" d="M707.799,263.731l3.203,10.365l-10.855,10.021l14.621,2.162l3.186,10.31l-25.568-4.962l-15.813,4.886
		l-2.89-9.352l15.812-4.887L707.799,263.731z"/>
</g>
<g>
	<path fill="#3B54A4" d="M110.68,444.154l-2.668-12.518l-6.381-0.457l-2.398-11.257l39.263,5.649l2.563,12.026l-33.548,21.166
		l-2.46-11.545L110.68,444.154z M118.064,440.189l12.247-6.729l-13.918-1.107L118.064,440.189z"/>
	<path fill="#3B54A4" d="M144.36,451.918l3.607,9.889l-14.638,19.961l19.346-7.059l3.642,9.982l-34.968,12.756l-3.642-9.98
		l14.518-19.838l-19.2,7.004l-3.633-9.957L144.36,451.918z"/>
	<path fill="#3B54A4" d="M158.424,489.146l7.887,14.773c1.554,2.912,2.407,5.479,2.558,7.703c0.15,2.223-0.216,4.322-1.099,6.297
		c-0.884,1.977-2.185,3.762-3.904,5.357s-3.699,2.99-5.939,4.186c-3.509,1.875-6.439,2.936-8.791,3.186s-4.553,0.027-6.601-0.664
		c-2.049-0.693-3.716-1.723-5-3.086c-1.762-1.861-3.115-3.678-4.061-5.449l-7.887-14.771L158.424,489.146z M156.296,503.061
		l-17.941,9.578l1.301,2.438c1.109,2.076,2.133,3.43,3.072,4.057s2.128,0.877,3.566,0.748c1.437-0.129,3.47-0.895,6.099-2.297
		c3.479-1.857,5.563-3.686,6.254-5.482c0.69-1.799,0.348-3.986-1.027-6.561L156.296,503.061z"/>
	<path fill="#3B54A4" d="M164.238,548.428l7.26,7.924c-1.239,1.295-1.998,2.514-2.275,3.652c-0.446,1.85,0.008,3.615,1.359,5.293
		c1.011,1.254,2.088,1.979,3.233,2.174c1.146,0.195,2.114-0.025,2.905-0.662c0.752-0.605,1.164-1.469,1.238-2.594
		c0.072-1.123-0.573-3.072-1.939-5.85c-2.218-4.561-3.254-8.252-3.111-11.072c0.133-2.832,1.332-5.16,3.601-6.986
		c1.489-1.199,3.238-1.908,5.244-2.129s4.072,0.213,6.199,1.303c2.125,1.088,4.38,3.111,6.762,6.07
		c2.923,3.631,4.463,6.955,4.62,9.969c0.156,3.018-1.123,5.914-3.838,8.697l-7.157-7.879c1.129-1.271,1.705-2.496,1.732-3.678
		c0.026-1.182-0.46-2.393-1.459-3.635c-0.821-1.021-1.662-1.611-2.52-1.771c-0.858-0.162-1.603,0.012-2.235,0.521
		c-0.462,0.371-0.706,0.92-0.731,1.643c-0.05,0.721,0.386,1.99,1.304,3.807c2.246,4.516,3.605,7.953,4.078,10.309
		s0.375,4.428-0.296,6.213c-0.67,1.785-1.797,3.314-3.379,4.588c-1.858,1.496-3.979,2.373-6.359,2.629
		c-2.38,0.254-4.704-0.195-6.972-1.352c-2.267-1.156-4.508-3.111-6.725-5.863c-3.891-4.832-5.635-8.943-5.234-12.332
		C159.943,554.025,161.509,551.029,164.238,548.428z"/>
	<path fill="#3B54A4" d="M201.504,599.238l-9.105-8.99l-5.582,3.123l-8.19-8.088l35.908-16.854l8.75,8.639l-16.398,36.117
		l-8.398-8.293L201.504,599.238z M205.496,591.867l6.536-12.35l-12.237,6.723L205.496,591.867z"/>
	<path fill="#3B54A4" d="M233.46,586.367l8.528,6.168l-0.938,24.736l12.067-16.688l8.609,6.227l-21.813,30.16l-8.609-6.225
		l0.907-24.566l-11.977,16.561l-8.59-6.211L233.46,586.367z"/>
	<path fill="#3B54A4" d="M266.85,609.381l9.803,5.617l-18.506,32.295l-9.803-5.615L266.85,609.381z"/>
	<path fill="#3B54A4" d="M279.453,617.059l31.229,14.096l-3.78,8.377l-10.479-4.729l-11.531,25.549l-10.273-4.637l11.53-25.549
		l-10.478-4.73L279.453,617.059z"/>
	<path fill="#3B54A4" d="M322.073,667.221l-12.205-3.846l-3.543,5.326l-10.977-3.459l24.262-31.381l11.728,3.693l1.888,39.623
		l-11.259-3.549L322.073,667.221z M322.262,658.842l0.181-13.973l-7.821,11.564L322.262,658.842z"/>
	<path fill="#3B54A4" d="M339.757,640.336l33.665,6.379l-1.712,9.031l-11.295-2.141l-5.218,27.541l-11.075-2.098l5.22-27.543
		l-11.297-2.139L339.757,640.336z"/>
	<path fill="#3B54A4" d="M376.914,646.662l11.249,1.039l-3.423,37.064l-11.249-1.039L376.914,646.662z"/>
	<path fill="#3B54A4" d="M392.854,667.213c-0.077-6.076,1.521-10.828,4.795-14.256s7.873-5.18,13.794-5.254
		c6.071-0.076,10.77,1.527,14.097,4.811c3.326,3.285,5.028,7.922,5.104,13.914c0.057,4.35-0.616,7.926-2.016,10.729
		s-3.445,4.994-6.138,6.578c-2.692,1.582-6.063,2.4-10.109,2.453c-4.114,0.051-7.526-0.574-10.239-1.877s-4.924-3.391-6.637-6.264
		S392.91,671.563,392.854,667.213z M404.125,667.119c0.049,3.758,0.768,6.449,2.156,8.074c1.39,1.625,3.262,2.422,5.617,2.391
		c2.421-0.029,4.285-0.857,5.593-2.482c1.306-1.625,1.933-4.52,1.88-8.684c-0.044-3.504-0.77-6.055-2.175-7.654
		c-1.405-1.598-3.295-2.383-5.666-2.352c-2.273,0.029-4.088,0.873-5.443,2.531C404.73,660.604,404.077,663.328,404.125,667.119z"/>
	<path fill="#3B54A4" d="M433.794,647.707l10.397-1.639l16.773,18.203l-3.206-20.342l10.495-1.654l5.795,36.768l-10.495,1.654
		l-16.676-18.063l3.182,20.189l-10.471,1.65L433.794,647.707z"/>
	<path fill="#3B54A4" d="M535.522,651.732l-11.741,5.09l0.813,6.346l-10.559,4.578l-2.228-39.605l11.281-4.891l27.383,28.699
		l-10.83,4.695L535.522,651.732z M530.176,645.277l-9.017-10.674l1.667,13.861L530.176,645.277z"/>
	<path fill="#3B54A4" d="M554.582,606.127l9.641-5.793l11.421,19.012c1.132,1.885,1.914,3.838,2.344,5.857
		c0.431,2.021,0.407,4.027-0.068,6.021c-0.478,1.992-1.239,3.648-2.285,4.969c-1.45,1.838-3.49,3.547-6.121,5.127
		c-1.521,0.914-3.246,1.803-5.176,2.666s-3.692,1.336-5.289,1.416c-1.597,0.082-3.252-0.172-4.969-0.758
		c-1.717-0.588-3.14-1.4-4.267-2.439c-1.817-1.672-3.195-3.289-4.137-4.855l-11.421-19.01l9.642-5.793l11.691,19.463
		c1.046,1.74,2.335,2.814,3.868,3.225c1.534,0.412,3.14,0.111,4.817-0.896c1.664-0.998,2.68-2.264,3.046-3.797
		c0.366-1.531,0.019-3.184-1.044-4.951L554.582,606.127z"/>
	<path fill="#3B54A4" d="M565.443,599.461l26.78-21.375l5.734,7.186l-8.985,7.17l17.486,21.91l-8.812,7.031l-17.485-21.91
		l-8.984,7.172L565.443,599.461z"/>
	<path fill="#3B54A4" d="M593.79,576.344l7.92-8.02l9.269,9.15l8.653-8.764l-9.269-9.152l7.954-8.057l26.488,26.152l-7.954,8.057
		l-10.716-10.58l-8.652,8.766l10.714,10.578l-7.919,8.021L593.79,576.344z"/>
	<path fill="#3B54A4" d="M634.572,560.816c-4.922-3.563-7.782-7.68-8.58-12.354c-0.796-4.672,0.541-9.406,4.013-14.203
		c3.56-4.92,7.65-7.734,12.271-8.443c4.62-0.711,9.358,0.689,14.212,4.203c3.523,2.551,5.993,5.223,7.408,8.02
		c1.414,2.793,1.953,5.744,1.617,8.85c-0.335,3.105-1.689,6.297-4.063,9.576c-2.413,3.332-4.95,5.699-7.614,7.098
		c-2.663,1.4-5.66,1.93-8.986,1.59C641.522,564.813,638.098,563.367,634.572,560.816z M641.224,551.715
		c3.043,2.203,5.632,3.232,7.764,3.086c2.133-0.145,3.889-1.172,5.271-3.08c1.419-1.961,1.867-3.951,1.343-5.971
		c-0.525-2.018-2.474-4.246-5.847-6.688c-2.838-2.055-5.318-2.996-7.44-2.82c-2.121,0.174-3.878,1.221-5.269,3.143
		c-1.333,1.842-1.737,3.801-1.214,5.879C636.354,547.342,638.151,549.492,641.224,551.715z"/>
	<path fill="#3B54A4" d="M675.796,534.297l-32.862-17.48l8.822-16.586c1.636-3.076,3.156-5.283,4.559-6.623
		c1.402-1.338,3.098-2.119,5.085-2.34c1.986-0.221,4.026,0.227,6.118,1.34c1.823,0.969,3.192,2.186,4.11,3.652
		c0.917,1.465,1.432,3.084,1.544,4.854c0.071,1.129-0.114,2.525-0.558,4.188c1.034-0.971,1.897-1.619,2.589-1.945
		c0.465-0.223,1.322-0.449,2.575-0.674c1.251-0.225,2.179-0.328,2.782-0.309l12.086,0.246l-5.981,11.246l-12.872-0.023
		c-1.658-0.018-2.822,0.133-3.491,0.453c-0.89,0.449-1.576,1.125-2.06,2.033l-0.468,0.879l13.339,7.096L675.796,534.297z
		 M661.565,513.904l2.232-4.195c0.24-0.455,0.56-1.412,0.954-2.875c0.216-0.73,0.158-1.451-0.173-2.164
		c-0.33-0.711-0.854-1.258-1.572-1.639c-1.061-0.564-2.05-0.668-2.969-0.311c-0.919,0.355-1.86,1.443-2.827,3.258l-2.325,4.373
		L661.565,513.904z"/>
	<path fill="#3B54A4" d="M659.626,483.836l4.299-10.447l34.421,14.168l-4.299,10.447L659.626,483.836z"/>
	<path fill="#3B54A4" d="M665.346,471.035l10.029-32.764l8.789,2.689l-3.364,10.994l26.804,8.203l-3.3,10.779l-26.804-8.205
		l-3.364,10.992L665.346,471.035z"/>
	<path fill="#3B54A4" d="M675.098,440.178l2.117-12.34l13.619-5.12l-11.13-9.383l2.106-12.274l18.922,17.639l15.364,2.636
		l-1.91,11.135l-15.364-2.637L675.098,440.178z"/>
</g>
<rect x="431.86" y="548.043" fill-rule="evenodd" clip-rule="evenodd" fill="#112417" width="73.353" height="3.086"/>
<rect x="329.102" y="548.043" fill-rule="evenodd" clip-rule="evenodd" fill="#112417" width="61.536" height="3.086"/>
<path fill-rule="evenodd" clip-rule="evenodd" fill="#26401D" d="M289.6,429.16c0,0,15.676-15.827-6.518-7.843
	c0,0-11.325,9.255-6.936-3.139c0,0-11.896,3.697-9.595,13.268c0,0,9.511,7.046,16.531-2.78"/>
<path fill-rule="evenodd" clip-rule="evenodd" fill="#26401D" d="M266.985,442.615"/>
<path fill-rule="evenodd" clip-rule="evenodd" fill="#26401D" d="M271.279,432.875c0,0-8.346,4.73,0,9.74h-7.215
	c0,0,0.255-11.426,2.921-18.647L271.279,432.875z"/>
<polygon fill-rule="evenodd" clip-rule="evenodd" fill="#64BDA1" stroke="#13331F" stroke-width="3" stroke-miterlimit="10" points="
	290.771,401.334 276.519,401.334 273.519,257.138 285.771,258.138 "/>
<polygon fill-rule="evenodd" clip-rule="evenodd" fill="#0A1F12" points="113.153,350.745 118.569,367.415 136.097,367.415 
	121.917,377.718 127.333,394.387 113.153,384.085 98.973,394.387 104.389,377.718 90.208,367.415 107.737,367.415 "/>
<polygon fill-rule="evenodd" clip-rule="evenodd" fill="#0A1F12" points="707.992,350.745 713.408,367.415 730.937,367.415 
	716.756,377.718 722.172,394.387 707.992,384.085 693.813,394.387 699.229,377.718 685.048,367.415 702.576,367.415 "/>
<path fill-rule="evenodd" clip-rule="evenodd" fill="#12331C" d="M650.738,743.131C402,894,192.722,754.514,192.722,754.514
	l49.295-59.188c0,0,180.067,102.58,368.384-18.859L650.738,743.131z"/>
<path fill-rule="evenodd" clip-rule="evenodd" fill="#FFFFFF" d="M646.317,741.855c-2.609-0.94-10.23-1.169-13.28,0.499
	c-213.498,116.738-382.299,35.281-419.5,14.209c-5.033-2.851-7.657-4.597-7.657-4.597l35.151-45.778
	c0,0,195.026,93.581,368.657-18.389L646.317,741.855z"/>
<polygon fill-rule="evenodd" clip-rule="evenodd" fill="#12331C" points="223.807,792.37 217.029,796.845 192.722,754.514 
	205.88,754.514 "/>
<polygon fill-rule="evenodd" clip-rule="evenodd" fill="#12331C" points="636.843,775.68 628.978,775.647 641.951,744.212 
	650.738,743.131 "/>
<g>
	<path fill="#4054A5" d="M252.629,725.832l13.454,5.271l-2.863,22.59l13.204-18.539l13.447,5.268l-13.235,33.785l-8.379-3.283
		l10.093-25.764l-16.549,23.234l-7.584-2.971l3.649-28.289L247.773,762.9l-8.378-3.283L252.629,725.832z"/>
	<path fill="#4054A5" d="M295.809,742.635l10.152,2.422l-1.057,20.631l10.062-18.482l10.115,2.412l0.657,21.01l8.365-18.859
		l10.099,2.408l-16.042,33.477l-10.48-2.498l-0.768-23.67l-11.342,20.781l-10.481-2.5L295.809,742.635z"/>
	<path fill="#4054A5" d="M369.516,787.145l-12.406-1.307l-2.351,5.777l-11.157-1.174l17.086-34.688l11.919,1.252l9.493,37.484
		l-11.442-1.205L369.516,787.145z M368.07,779.102l-2.539-13.381l-5.228,12.564L368.07,779.102z"/>
	<path fill="#4054A5" d="M414.16,758.297l10.963-0.102l0.201,21.617c0.02,2.145-0.289,4.17-0.926,6.08
		c-0.638,1.912-1.648,3.588-3.034,5.025c-1.386,1.439-2.844,2.455-4.374,3.045c-2.127,0.828-4.687,1.256-7.678,1.283
		c-1.73,0.018-3.619-0.088-5.667-0.316s-3.763-0.703-5.144-1.426c-1.381-0.721-2.648-1.752-3.801-3.094
		c-1.152-1.34-1.945-2.727-2.379-4.158c-0.701-2.301-1.06-4.342-1.076-6.123l-0.2-21.617l10.963-0.102l0.206,22.131
		c0.018,1.979,0.569,3.52,1.655,4.623c1.085,1.102,2.583,1.645,4.49,1.627c1.892-0.018,3.37-0.58,4.436-1.686
		s1.589-2.666,1.57-4.676L414.16,758.297z"/>
	<path fill="#4054A5" d="M431.859,758.197l10.332-1.473l6.586,19.58l2.578-20.887l10.295-1.467l8.32,19.305l0.861-20.615
		l10.277-1.465l-2.639,37.029l-10.666,1.52l-9.398-21.736l-2.928,23.492l-10.666,1.521L431.859,758.197z"/>
	<path fill="#4054A5" d="M516.455,772.721l-12.033,3.297l-0.088,6.234l-10.82,2.965l3.301-38.525l11.559-3.168l22.477,31.463
		l-11.096,3.041L516.455,772.721z M512.182,765.756l-7.232-11.541l-0.299,13.605L512.182,765.756z"/>
	<path fill="#4054A5" d="M534.85,760.832l9.475-4.473c0.848,1.527,1.762,2.586,2.744,3.174c1.592,0.947,3.365,1.035,5.32,0.26
		c1.457-0.578,2.443-1.371,2.957-2.381c0.512-1.012,0.586-1.979,0.221-2.898c-0.346-0.875-1.031-1.506-2.057-1.9
		c-1.025-0.393-3.027-0.354-6.006,0.117c-4.889,0.748-8.623,0.646-11.207-0.299c-2.6-0.941-4.42-2.73-5.467-5.369
		c-0.686-1.734-0.844-3.566-0.469-5.498s1.375-3.729,3.002-5.395s4.164-3.18,7.605-4.545c4.225-1.672,7.764-2.146,10.615-1.422
		c2.854,0.725,5.182,2.752,6.99,6.082l-9.402,4.389c-0.857-1.416-1.832-2.309-2.926-2.674c-1.092-0.365-2.359-0.262-3.803,0.309
		c-1.188,0.473-1.98,1.082-2.379,1.834c-0.398,0.754-0.451,1.498-0.158,2.232c0.213,0.539,0.652,0.924,1.318,1.156
		c0.656,0.254,1.963,0.217,3.92-0.115c4.854-0.787,8.445-1.061,10.775-0.822c2.33,0.24,4.229,0.93,5.699,2.068
		c1.469,1.141,2.566,2.631,3.297,4.471c0.855,2.164,1.061,4.391,0.611,6.68c-0.451,2.291-1.541,4.324-3.271,6.102
		s-4.197,3.301-7.4,4.568c-5.621,2.229-9.953,2.666-12.992,1.314C538.822,766.445,536.484,764.125,534.85,760.832z"/>
	<path fill="#4054A5" d="M597.516,739.115l-11.018,5.854l1.279,6.102l-9.908,5.262l-5.217-38.313l10.586-5.623l28.82,25.777
		l-10.162,5.396L597.516,739.115z M591.822,733.256l-9.584-9.678l2.688,13.34L591.822,733.256z"/>
</g>
</svg>
