<svg xmlns="http://www.w3.org/2000/svg" xmlns:xlink="http://www.w3.org/1999/xlink" viewBox="0 0 169.13 33.16">
  <defs>
    <style>
      .cls-1 {
        fill: none;
      }

      .cls-2 {
        clip-path: url(#clip-path);
      }

      .cls-3 {
        fill: url(#radial-gradient);
      }

      .cls-4 {
        fill: #002f54;
      }
    </style>
    <clipPath id="clip-path" transform="translate(-0.04)">
      <path class="cls-1" d="M20.36,27.12a20.2,20.2,0,0,0,6.07-1c.46-.16.9-.33,1.32-.52a7.35,7.35,0,0,1-2.23,3,14.87,14.87,0,0,1-6.65,2.76A15.43,15.43,0,0,0,20.36,27M10.11,30H10c-.85-.42-1.2-2.33-.75-5.25a26.89,26.89,0,0,0,5.32,1.73,27.52,27.52,0,0,0,4.24.57c-.68,3-1.56,4.52-2.13,4.52h-.11a15.2,15.2,0,0,1-6.42-1.48M2.2,20.69A8.72,8.72,0,0,1,2,19.16,14.26,14.26,0,0,0,3.84,21.3a19.3,19.3,0,0,0,4,2.77,14.17,14.17,0,0,0-.19,4.5,15.09,15.09,0,0,1-5.41-7.88m19.17-4.15V14.73a11.9,11.9,0,0,0,5.15-1.46,18.15,18.15,0,0,1,2.06,8.13,12.38,12.38,0,0,1-.19,2.19A11.51,11.51,0,0,1,26,24.69a18.25,18.25,0,0,1-5.29.87,56.56,56.56,0,0,0,.68-9M14.85,25A25.27,25.27,0,0,1,9.5,23.26a39.78,39.78,0,0,1,3.12-8.59c.23-.47.47-.93.71-1.39a17.94,17.94,0,0,0,3.57,1.16,16.2,16.2,0,0,0,2.86.35v1.79a52.19,52.19,0,0,1-.71,9,24.76,24.76,0,0,1-4.2-.54m-10-4.84a9.74,9.74,0,0,1-2.67-3.76,12,12,0,0,1,2.1-4.23A16.79,16.79,0,0,1,7.89,8.73a8.67,8.67,0,0,0,1.69,2.12A12.71,12.71,0,0,0,12,12.55c-.24.46-.48.94-.71,1.41a42.77,42.77,0,0,0-3.14,8.55A17,17,0,0,1,4.9,20.17M20.28,5.84a20.54,20.54,0,0,1,4.71,5c.25.37.5.75.72,1.14a10.63,10.63,0,0,1-4.47,1.25,43.45,43.45,0,0,0-1-7.35m-3,7.07A16.81,16.81,0,0,1,14,12,33.48,33.48,0,0,1,18.6,5.61a41.18,41.18,0,0,1,1.06,7.66A14.64,14.64,0,0,1,17.19,13M10.6,9.74A6.63,6.63,0,0,1,9.15,7.9,20.55,20.55,0,0,1,13.9,5.81,21.94,21.94,0,0,1,17,5a36.36,36.36,0,0,0-4.31,6.13,10.84,10.84,0,0,1-2-1.51M7.32,4.75A1.05,1.05,0,0,0,7.26,5a4.85,4.85,0,0,0,0,2.21A18.36,18.36,0,0,0,3,11.2a15.11,15.11,0,0,0-.95,1.41A15.07,15.07,0,0,1,7.28,4.73m1.45.56a3.7,3.7,0,0,1,1.39-2.11,9.67,9.67,0,0,1,6.1.4A22.86,22.86,0,0,0,8.67,6.29a3.37,3.37,0,0,1,.06-1m12.51-2a4.9,4.9,0,0,1,1.42-.68A11.62,11.62,0,0,1,25,3.84a19.2,19.2,0,0,0-3.69-.53m-2.6-1.66a17,17,0,0,1,2,.34,8.94,8.94,0,0,0-1.33.87,7.82,7.82,0,0,0-.65-1.21M17,2.26a13.68,13.68,0,0,0-2.07-.62,15.4,15.4,0,0,1,1.66-.1c.26,0,.59.32.92.93L17,2.26M0,16.58a16.67,16.67,0,0,0,.64,4.55,1.15,1.15,0,0,0,.08.29h0a16.59,16.59,0,0,0,25.14,8.84l.08-.05c.15-.11.31-.22.45-.34a16.58,16.58,0,0,0,6.26-9.31,4.56,4.56,0,0,0,.13-.53V19.9a16.61,16.61,0,0,0,.34-3.37,16.23,16.23,0,0,0-1.3-6.45.77.77,0,1,0-1.42.6,15.07,15.07,0,0,1,.74,9.46,5.55,5.55,0,0,1-1.18,2v-.8a19.78,19.78,0,0,0-2.33-9,6,6,0,0,0,2.17-3.4.77.77,0,1,0-1.52-.28A4.33,4.33,0,0,1,27,11c-.22-.36-.45-.72-.7-1.08a22.5,22.5,0,0,0-4.72-5.07,14.61,14.61,0,0,1,6.2,1.68.79.79,0,0,0,.89-.06.78.78,0,0,0,.1-1.09C26.24,1.92,21.94,0,16.62,0A16.6,16.6,0,0,0,0,16.58"/>
    </clipPath>
    <radialGradient id="radial-gradient" cx="-666.31" cy="306.44" r="0.45" gradientTransform="translate(40503.23 -18605.97) scale(60.74)" gradientUnits="userSpaceOnUse">
      <stop offset="0" stop-color="#fff"/>
      <stop offset="0.06" stop-color="#ebf9fe"/>
      <stop offset="0.18" stop-color="#b6e8fa"/>
      <stop offset="0.36" stop-color="#60cdf5"/>
      <stop offset="0.54" stop-color="#00aeef"/>
      <stop offset="1" stop-color="#002f54"/>
    </radialGradient>
  </defs>
  <title>wb-logo</title>
  <g id="Layer_2" data-name="Layer 2">
    <g id="Layer_1-2" data-name="Layer 1">
      <g id="_Group_" data-name=" Group ">
        <g id="_Clip_Group_" data-name=" Clip Group ">
          <g class="cls-2">
            <rect id="_Path_2" data-name=" Path 2" class="cls-3" width="33.16" height="33.16"/>
          </g>
        </g>
        <path id="_Compound_Path_2" data-name=" Compound Path 2" class="cls-4" d="M165.37,11.73c2.45,0,3.8,1.19,3.8,3.34s-1.33,3.25-3.55,3.25h-1.56v3.11H162v-9.7Zm-1.31,4.9h1.23q1.8,0,1.8-1.56c0-1.05-.66-1.62-1.87-1.62h-1.16Zm-5.87.92c0,1.42-.55,2.11-1.67,2.11s-1.71-.71-1.71-2.11V11.73h-2.06v5.68a4.24,4.24,0,0,0,1,3.13,3.77,3.77,0,0,0,2.75,1c1.7,0,3.74-.71,3.74-4.1V11.73h-2.07Zm-11.08-5.9c2.1,0,4.34,1.3,4.34,4.94s-2.24,4.92-4.34,4.92-4.34-1.29-4.34-4.92,2.24-4.94,4.34-4.94m0,8c.82,0,2.2-.4,2.2-3.11s-1.38-3.1-2.2-3.1c-1.42,0-2.21,1.1-2.21,3.1s.79,3.11,2.21,3.11m-6.47-1.21c.34.69.63,1.29,1.32,1.29h.49v1.6h-.07a4.78,4.78,0,0,1-1,.1c-1.63,0-2.13-1.13-2.57-2.12-.36-.81-.68-1.51-1.53-1.51h-.91v3.56H134.3v-9.7h3.43c2.52,0,3.68,1,3.68,3.09a2.58,2.58,0,0,1-1.56,2.44,4.31,4.31,0,0,1,.79,1.23m-4.28-2.22h1.16c1.14,0,1.86-.54,1.86-1.4s-.63-1.42-1.71-1.42h-1.31Zm-7.56,1.61h2.13V18a1.53,1.53,0,0,1-1.36,1.68,1.37,1.37,0,0,1-.35,0c-1.4,0-2.23-1.15-2.23-3.08s.8-3.1,2.19-3.1a1.72,1.72,0,0,1,1.72,1.72v.14l1.93-.3V15a3.5,3.5,0,0,0-3.67-3.32h0c-2.74,0-4.31,1.8-4.31,4.94s1.62,4.92,4.33,4.92a3.4,3.4,0,0,0,3.69-3.06,3.69,3.69,0,0,0,0-.47V16.3H128.8Zm-6.18-6.15h-2.46L117,16.1V11.73h-2.09v9.7H117V17l3.29,4.46h2.49L119,16.54Zm-11.68,6-3.39-6h-2.1v9.7h2.07V15.65l3.38,5.78H113v-9.7h-2.06Zm-9.57-5.92,3.53,9.63h-2.15L101.93,19H98.7l-.8,2.38H95.73l3.56-9.7h2Zm-1.06,2.58-1,3.06h2.12Zm-6.49,1.94a2.33,2.33,0,0,1,1.71,2.35c0,1.75-1.24,2.76-3.4,2.76H88v-9.7h3.69c2.1,0,3.17.88,3.17,2.61,0,1.34-.61,1.81-1.08,2m-2.31-.62c.87,0,1.27-.36,1.27-1.14s-.52-1.11-1.52-1.11H90.1v2.25Zm-1.41,4h1.62c1,0,1.54-.4,1.54-1.25s-.86-1.26-1.58-1.26H90.1Zm-10.57-8c3,0,4.82,1.88,4.82,5s-1.61,4.69-4.41,4.69H76.65v-9.7Zm-.81,8h1.2c1.49,0,2.38-1.13,2.38-3,0-2.17-.94-3.27-2.8-3.27h-.78Zm-7.23-8h-2v9.7h6.26V19.72h-4.2Zm-4.84,6.76c.34.69.63,1.29,1.31,1.29h.49v1.6h-.07a4.19,4.19,0,0,1-1,.1c-1.63,0-2.13-1.13-2.57-2.12-.36-.81-.68-1.51-1.53-1.51h-.91v3.56h-2v-9.7h3.43c2.51,0,3.68,1,3.68,3.09a2.58,2.58,0,0,1-1.56,2.44,4.31,4.31,0,0,1,.79,1.23m-4.28-2.22h1.16c1.14,0,1.85-.54,1.85-1.4s-.62-1.42-1.71-1.42h-1.3ZM54.8,11.65c2.09,0,4.33,1.3,4.33,4.94s-2.24,4.92-4.33,4.92-4.35-1.29-4.35-4.92,2.25-4.94,4.35-4.94m0,8c.82,0,2.19-.4,2.19-3.11s-1.37-3.1-2.19-3.1c-1.43,0-2.21,1.1-2.21,3.1s.78,3.11,2.21,3.11m-7-8h2.33l-2.78,9.7h-2.3l-1.7-6.08-1.72,6.08H39.3l-2.78-9.7h2.4l1.63,7.08,2-7.08h1.73l1.89,7.08Z" transform="translate(-0.04)"/>
      </g>
    </g>
  </g>
</svg>
