<?xml version="1.0" encoding="utf-8"?>
<!-- Generator: Adobe Illustrator 18.0.0, SVG Export Plug-In . SVG Version: 6.00 Build 0)  -->
<!DOCTYPE svg PUBLIC "-//W3C//DTD SVG 1.1//EN" "http://www.w3.org/Graphics/SVG/1.1/DTD/svg11.dtd">
<svg version="1.1" id="Layer_1" xmlns="http://www.w3.org/2000/svg" xmlns:xlink="http://www.w3.org/1999/xlink" x="0px" y="0px"
	 width="201.1px" height="196px" viewBox="0 0 201.1 196" enable-background="new 0 0 201.1 196" xml:space="preserve">
<circle fill="#F2F0FC" cx="101.1" cy="110" r="48"/>
<path fill="#FF9DC3" d="M30.6,43c-4.4,0-8-3.6-8-8s3.6-8,8-8s8,3.6,8,8S35,43,30.6,43z M30.6,31c-2.2,0-4,1.8-4,4s1.8,4,4,4
	s4-1.8,4-4S32.8,31,30.6,31z"/>
<path fill="#FF9DC3" d="M181.6,67c-6.4,0-11.7-5.2-11.7-11.7s5.2-11.7,11.7-11.7s11.7,5.2,11.7,11.7S188,67,181.6,67z M181.6,47.7
	c-4.2,0-7.7,3.4-7.7,7.7s3.4,7.7,7.7,7.7s7.7-3.4,7.7-7.7S185.8,47.7,181.6,47.7z"/>
<path fill="#FF9DC3" d="M16.2,56.3H3.9V44h12.3V56.3z M7.9,52.3h4.3V48H7.9V52.3z"/>
<path fill="#FF9DC3" d="M168.6,16h-18c-1.1,0-2-0.9-2-2s0.9-2,2-2h18c1.1,0,2,0.9,2,2S169.7,16,168.6,16z"/>
<path fill="#FF9DC3" d="M159.6,24c-1.1,0-2-0.9-2-2V5c0-1.1,0.9-2,2-2s2,0.9,2,2v17C161.6,23.1,160.7,24,159.6,24z"/>
<g>
	<path fill="#856EE4" d="M99.4,49.6c0.3,0,0.6-0.1,0.8-0.2c1-0.5,1.5-1.6,1-2.6c0-0.1-3.4-7.5-3.4-13.9c0-1.1-0.9-2-2-2s-2,0.9-2,2
		c0,7.2,3.6,15.2,3.7,15.5C98,49.1,98.7,49.6,99.4,49.6z"/>
	<path fill="#856EE4" d="M188.3,121.4c-0.9,0-1.8,0.1-2.6,0.4c-0.4-4.2-2.8-7.7-6.2-9.7c0-0.1,0-0.1,0-0.2c0-29.4-16.1-56.3-42-70.2
		c-1-0.5-2.2-0.2-2.7,0.8c-0.5,1-0.2,2.2,0.8,2.7c24.2,13,39.4,37.9,39.9,65.3c-0.7-0.1-1.4-0.2-2.2-0.2c-6.9,0-12.4,5.6-12.4,12.4
		c0,0.6,0,1.3,0.1,1.9c-3.2,1-5.5,4-5.5,7.5c0,4.3,3.5,7.8,7.8,7.8h6.8c-8.9,22.3-27.9,38.7-50.6,44.9V142c0-11,9-20,20-20
		c1,0,1.6-0.7,1.8-1.6c0.3-0.4,0.2-0.9,0.2-1.5v-20c0-1.7-1-2.9-2.6-2.9h-7.4v-6.5l4.4-6c0.7-0.9,0.8-2,0.3-3
		c-0.5-1-1.5-1.5-2.7-1.5h-16.9c-1.2-2-3.7-7.6-1.9-16.5c2.4-11.3-0.6-16.3-6-25.2c-0.8-1.4-1.7-2.8-2.6-4.4
		c-6.6-11.3-5.1-21.6-5.1-21.7c0.1-0.8-0.3-1.7-1-2.1c-0.7-0.4-1.6-0.3-2.3,0.2c-0.1,0.1-3.6,3.1-7.8,11c-2.1,3.9-2.7,10.6-3.3,17.6
		c-0.6,7.5-1.3,15.4-3.8,20C78.8,65.6,79.7,75,80.4,79H66.8c-1.1,0-2.2,0.5-2.7,1.5c-0.5,1-0.6,2.2,0.1,3.1l4.3,5.9V96H59
		c-1.7,0-3.4,1.3-3.4,2.9v20c0,0.9,0.6,1.7,1.2,2.2c0.4,0.5,1,0.8,1.7,0.8c11.6,0,21.1,9.4,21.1,21l0.1,41.6
		c-31.8-8.9-55.2-38.1-55.2-72.7c0-7.1,1-14.2,3-20.9h16.9c5.1,0,9.3-4.2,9.3-9.3c0-5.1-4.2-9.3-9.3-9.3c-0.9,0-1.8,0.1-2.6,0.4
		c-0.2-2.2-1-4.3-2.2-6.1C46.7,57.1,56.2,49.2,67,44c1-0.5,1.4-1.7,0.9-2.7c-0.5-1-1.7-1.4-2.7-0.9c-11.2,5.4-21.1,13.5-28.6,23.5
		c-2.1-1.5-4.6-2.4-7.3-2.4c-6.9,0-12.4,5.6-12.4,12.4c0,0.6,0,1.3,0.1,1.9c-3.2,1-5.5,4-5.5,7.5c0,4.3,3.5,7.8,7.8,7.8h3.9
		c-1.8,6.8-2.8,13.8-2.8,20.9c0,43.2,34.7,78.5,77.7,79.5c0.4,0.4,0.9,0.6,1.4,0.6c0.5,0,1-0.2,1.4-0.6c32.6-0.4,62-20.9,73.5-51.4
		h13.9c5.1,0,9.3-4.2,9.3-9.3C197.6,125.6,193.4,121.4,188.3,121.4z M15.5,83.2c0-2.1,1.7-3.8,3.8-3.8c0,0,0,0,0,0c0,0,0.1,0,0.2,0
		c0.6,0,1.3-0.3,1.7-0.8c0.4-0.5,0.5-1.2,0.3-1.9c-0.3-0.9-0.5-1.9-0.5-2.9c0-4.7,3.8-8.4,8.4-8.4s8.4,3.8,8.4,8.4
		c0,0.6-0.1,1.3-0.2,2c-0.2,0.9,0.2,1.7,0.9,2.2c0.8,0.4,1.7,0.4,2.4-0.2c1-0.9,2.2-1.4,3.5-1.4c2.9,0,5.3,2.4,5.3,5.3
		c0,2.9-2.4,5.3-5.3,5.3h-25C17.2,87,15.5,85.3,15.5,83.2z M115.6,142v43.8c-4.6,1-9.2,1.5-14,1.6V122h24.8
		C119.9,126,115.6,133.6,115.6,142z M59.6,111h78v7h-78V111z M101.6,96v-5h26v5H101.6z M86.5,59.8c2.9-5.3,3.6-13.6,4.3-21.5
		c0.6-6.6,1.1-12.9,2.8-16.1c1.3-2.4,2.4-4.2,3.4-5.7c0.3,4.6,1.6,11.3,5.7,18.4c0.9,1.6,1.8,3.1,2.7,4.5c5.3,8.8,7.5,12.6,5.5,22.3
		c-1.7,8-0.1,13.3,1.3,17.3H98.9c-1.1-3-3.4-9.6-0.9-17.5c0.3-1.1-0.2-2.2-1.3-2.6c-1-0.3-2.2,0.3-2.5,1.4c-2.6,7.9-1,14.7,0.4,18.7
		H84.5C83.9,76,82.7,66.9,86.5,59.8z M97.7,83C97.7,83,97.7,83,97.7,83C97.7,83,97.7,83,97.7,83h33.9l-3,4H71.9l-3-4H97.7z M72.6,91
		h25v5h-25V91z M68.6,100L68.6,100h63l0,0h6v7h-78v-7H68.6z M83.6,143c0-8.8-4.6-17-11.6-21h25.5v65.4c-4.8-0.2-9.4-0.7-13.9-1.7
		L83.6,143z M188.3,136h-25c-2.1,0-3.8-1.7-3.8-3.8s1.7-3.8,3.8-3.8c0,0,0,0,0,0c0,0,0.1,0,0.2,0c0.7,0,1.3-0.3,1.7-0.8
		c0.4-0.5,0.5-1.2,0.3-1.9c-0.3-0.9-0.5-1.9-0.5-2.9c0-4.7,3.8-8.4,8.4-8.4s8.4,3.8,8.4,8.4c0,0.6-0.1,1.3-0.2,2
		c-0.2,0.9,0.2,1.7,0.9,2.2c0.8,0.5,1.7,0.4,2.4-0.2c1-0.9,2.2-1.4,3.5-1.4c2.9,0,5.3,2.4,5.3,5.3C193.6,133.6,191.2,136,188.3,136z
		"/>
</g>
</svg>
