<?xml version="1.0" encoding="utf-8"?>
<!-- Generator: Adobe Illustrator 18.0.0, SVG Export Plug-In . SVG Version: 6.00 Build 0)  -->
<!DOCTYPE svg PUBLIC "-//W3C//DTD SVG 1.1//EN" "http://www.w3.org/Graphics/SVG/1.1/DTD/svg11.dtd">
<svg version="1.1" id="Layer_1" xmlns="http://www.w3.org/2000/svg" xmlns:xlink="http://www.w3.org/1999/xlink" x="0px" y="0px"
	 width="201.1px" height="200.9px" viewBox="0 0 201.1 200.9" enable-background="new 0 0 201.1 200.9" xml:space="preserve">
<circle fill="#EAF5FF" cx="98.5" cy="117" r="48"/>
<path fill="#FF9DC3" d="M31,49c-4.4,0-8-3.6-8-8s3.6-8,8-8s8,3.6,8,8S35.4,49,31,49z M31,37c-2.2,0-4,1.8-4,4s1.8,4,4,4s4-1.8,4-4
	S33.2,37,31,37z"/>
<path fill="#FF9DC3" d="M182,73c-6.4,0-11.7-5.2-11.7-11.7s5.2-11.7,11.7-11.7c6.4,0,11.7,5.2,11.7,11.7S188.4,73,182,73z M182,53.7
	c-4.2,0-7.7,3.4-7.7,7.7s3.4,7.7,7.7,7.7s7.7-3.4,7.7-7.7S186.2,53.7,182,53.7z"/>
<path fill="#FF9DC3" d="M16.7,62.3H4.3V50h12.3V62.3z M8.3,58.3h4.3V54H8.3V58.3z"/>
<path fill="#FF9DC3" d="M168.6,37.4h-18c-1.1,0-2-0.9-2-2s0.9-2,2-2h18c1.1,0,2,0.9,2,2S169.7,37.4,168.6,37.4z"/>
<path fill="#FF9DC3" d="M159.6,45.4c-1.1,0-2-0.9-2-2v-17c0-1.1,0.9-2,2-2s2,0.9,2,2v17C161.6,44.6,160.7,45.4,159.6,45.4z"/>
<path fill="#74BCF9" d="M26.8,149.3c-0.8,0-1.6-0.5-1.9-1.3c-3.6-9.2-5.5-19-5.5-29c0-15.9,4.7-31.2,13.5-44.3
	c0.6-0.9,1.9-1.2,2.8-0.5c0.9,0.6,1.2,1.9,0.5,2.8c-8.4,12.5-12.8,27-12.8,42.1c0,9.5,1.7,18.8,5.2,27.6c0.4,1-0.1,2.2-1.1,2.6
	C27.3,149.3,27.1,149.3,26.8,149.3z"/>
<g>
	<path fill="#74BCF9" d="M186.4,129.1c-1,0-2,0.1-2.8,0.3c-0.2-3.9-2.1-7.4-5-9.7c0.1-0.2,0.1-0.4,0.1-0.7
		c0-31.5-18.6-60.1-47.5-72.8c-1-0.4-2.2,0-2.6,1c-0.4,1,0,2.2,1,2.6c27,11.9,44.5,38.4,45.1,67.7c-1.3-0.4-2.6-0.6-4-0.6
		c-7.1,0-12.9,5.8-12.9,12.9c0,0.7,0.1,1.4,0.2,2.1c-3.4,1.3-5.8,5.4-5.8,9.1c0,4.4,3.5,9.5,8.1,9.5h7.6c-11,24-33.4,40.3-59.2,43.5
		v-49.5h15.9c3.7,0,6.7-3,6.7-6.7c0-2.5-1.4-4.7-3.5-5.9l2.1-4.6c0.3-0.6,0.2-1.3-0.1-1.9c-0.4-0.6-1-0.9-1.7-0.9H70
		c-0.7,0-1.4,0.4-1.7,1c-0.4,0.6-0.4,1.4,0,2l2.3,4.2c-2.5,1-4.3,3.4-4.3,6.2c0,3.7,3,6.7,6.7,6.7h11.7v48.7c-10.2-2-19.8-6-28.4-12
		c2.4-2.5,3.9-6.1,3.9-9.4c0-6.3-5.1-11.8-10.9-11.8c-1.3,0-2.5,0.1-3.6,0.4c-0.1-8.1-6.7-14.6-14.7-14.6c-8.1,0-14.7,6.6-14.7,14.7
		c0,0.9,0.1,1.8,0.3,2.7c-4,1.4-6.8,6.2-6.8,10.4c0,5,4,10.8,9.1,10.8h30.5c1.2,0,2.4-0.3,3.5-0.8c13.6,9.7,29.5,14.9,46.3,14.9
		c31.9,0,60.5-18.9,73.1-48.1h14.2c5.5,0,9.7-5.8,9.7-11C196,133.9,191.5,129.1,186.4,129.1z M18.8,180.4c-2.6,0-5.1-3.8-5.1-6.8
		c0-2.9,2.4-6.7,5-6.8c0.1,0,0.2,0,0.3,0c0.7,0,1.3-0.3,1.7-0.8c0.4-0.5,0.5-1.2,0.3-1.9c-0.4-1.2-0.7-2.4-0.7-3.6
		c0-5.9,4.8-10.7,10.7-10.7s10.7,4.9,10.7,10.8c0,0.9-0.1,1.9-0.3,2.7c-0.2,0.9,0.2,1.7,0.9,2.2c0.8,0.4,1.7,0.4,2.4-0.2
		c1-0.9,2.5-1.3,4.6-1.3c3.6,0,6.9,3.7,6.9,7.8c0,2.8-1.6,6-3.9,7.6c-0.2,0.1-0.5,0.2-0.7,0.4c-0.7,0.4-1.5,0.6-2.3,0.6H18.8z
		 M124.9,128.4l-1.2,3H74.8l-1.4-3H124.9z M70.1,137.9c0-1.5,1.2-2.5,2.7-2.5h50.7c0.1,0,0.2,0,0.4,0.1c0.3,0.1,0.6,0.1,0.8,0.1
		c0.3,0,0.6-0.1,0.8-0.2c1,0.4,1.6,1.3,1.6,2.4c0,1.5-1.2,2.6-2.7,2.6H72.9C71.4,140.4,70.1,139.4,70.1,137.9z M88.6,144.4h6v50
		c-2-0.1-4-0.3-6-0.6V144.4z M98.6,194.5v-50.1h6v49.9c-1.8,0.1-3.7,0.2-5.5,0.2C98.9,194.5,98.7,194.5,98.6,194.5z M186.4,146.4
		h-26.2c-2.1,0-4.1-3.1-4.1-5.5c0-2.4,1.9-5.4,4-5.5c0.1,0,0.2,0,0.2,0c0.7,0,1.3-0.3,1.7-0.8s0.5-1.2,0.3-1.9c-0.4-1-0.5-2-0.5-3
		c0-4.9,4-8.9,8.9-8.9s8.9,4,8.9,9c0,0.7-0.1,1.6-0.3,2.3c-0.2,0.9,0.2,1.7,0.9,2.2c0.7,0.4,1.7,0.4,2.4-0.2c0.8-0.8,2-1.1,3.8-1.1
		c3,0,5.7,3,5.7,6.4C192,142.6,189.4,146.4,186.4,146.4z"/>
	<path fill="#74BCF9" d="M33.2,77.4h16c3.8,0,6.7-4.2,6.7-7.9c0-3.4-2.7-7.3-6.7-7.3c0,0,0,0-0.1,0c5-4.4,10.6-8.2,16.6-11.2
		c1-0.5,1.4-1.7,0.9-2.7c-0.5-1-1.7-1.4-2.7-0.9c-6.1,3-11.8,6.8-17,11.3c-1.5-2.5-4.3-4.1-7.4-4.1c-4.8,0-8.7,3.9-8.7,8.6
		c0,0.3,0,0.6,0,0.8c-2.2,1.2-3.5,4.2-3.5,6.3C27.4,73.4,29.7,77.4,33.2,77.4z M33.1,67.6c0,0,0.1,0,0.1,0c0.7,0,1.3-0.3,1.7-0.8
		c0.4-0.5,0.5-1.2,0.3-1.9c-0.2-0.5-0.3-1-0.3-1.6c0-2.6,2.1-4.6,4.7-4.6c2.6,0,4.7,2.1,4.7,4.8c0,0.4-0.1,0.9-0.1,1.2
		c-0.2,0.9,0.2,1.7,0.9,2.2c0.8,0.4,1.7,0.4,2.4-0.2c0.3-0.3,0.8-0.4,1.8-0.4c1.3,0,2.7,1.7,2.7,3.3c0,1.7-1.5,3.9-2.7,3.9h-16
		c-0.6,0-1.7-1.6-1.7-2.9C31.4,69.2,32.5,67.7,33.1,67.6z"/>
	<path fill="#74BCF9" d="M70.9,95.1l-3.4,9.6c-0.2,0.6-0.1,1.3,0.2,1.8c0.4,0.5,1,0.8,1.6,0.8h58.5c0.6,0,1.2-0.3,1.6-0.8
		c0.4-0.5,0.5-1.2,0.3-1.8l-3-9.9c2.6-0.9,4.4-3.2,4.4-6.1c0-3.7-3-6.5-6.7-6.5h-18.9V57.3c0-1.1-1.1-1.9-2.2-1.9h-5.8v-42
		c0-1.1-0.9-2-2-2s-2,0.9-2,2v42H92c-1.1,0-2.4,0.8-2.4,1.9v25.1H72.9c-3.7,0-6.7,2.8-6.7,6.5C66.1,92,68.1,94.3,70.9,95.1z
		 M101.6,81.4h-8v-22h1.4c0.2,0,0.4,0.1,0.6,0.1s0.4-0.1,0.6-0.1h5.4V81.4z M72.2,103.4l2.6-7.2c0.1-0.3,0.1-0.8,0.1-0.8h48
		c0,0,0,0.4,0.1,0.6l2.2,7.4H72.2z M72.9,86.4h51.6c1.5,0,2.7,1,2.7,2.5s-1.2,2.5-2.7,2.5H72.9c-1.5,0-2.7-1-2.7-2.5
		S71.4,86.4,72.9,86.4z"/>
	<path fill="#74BCF9" d="M131.6,117.4h-68c-1.1,0-2,0.9-2,2s0.9,2,2,2h68c1.1,0,2-0.9,2-2S132.7,117.4,131.6,117.4z"/>
	<path fill="#74BCF9" d="M131.6,110.4h-68c-1.1,0-2,0.9-2,2s0.9,2,2,2h68c1.1,0,2-0.9,2-2S132.7,110.4,131.6,110.4z"/>
</g>
</svg>
